<svg xmlns="http://www.w3.org/2000/svg" version="1.1" xmlns:xlink="http://www.w3.org/1999/xlink" xmlns:svgjs="http://svgjs.dev/svgjs" width="1000" height="1000" viewBox="0 0 1000 1000"><rect width="1000" height="1000" fill="#ffffff"></rect><g transform="matrix(0.7,0,0,0.7,149.5757575757575,374.6057319661212)"><svg viewBox="0 0 396 142" data-background-color="#ffffff" preserveAspectRatio="xMidYMid meet" height="358" width="1000" xmlns="http://www.w3.org/2000/svg" xmlns:xlink="http://www.w3.org/1999/xlink"><g id="tight-bounds" transform="matrix(1,0,0,1,0.24000000000003752,0.05341604473582606)"><svg viewBox="0 0 395.5199999999999 141.89316791052838" height="141.89316791052838" width="395.5199999999999"><g><svg viewBox="0 0 681.3400034042553 244.43135999999998" height="141.89316791052838" width="395.5199999999999"><g transform="matrix(1,0,0,1,285.8200034042553,67.36776617214986)"><svg viewBox="0 0 395.52 109.69582765570028" height="109.69582765570028" width="395.52"><g id="textblocktransform"><svg viewBox="0 0 395.52 109.69582765570028" height="109.69582765570028" width="395.52" id="textblock"><g><svg viewBox="0 0 395.52 70.12765957446807" height="70.12765957446807" width="395.52"><g transform="matrix(1,0,0,1,0,0)"><svg width="395.52" viewBox="1 -29.700000762939453 274.9200134277344 48.75" height="70.12765957446807" data-palette-color="#755bb4"><path d="M10.35 3.55L10.35 3.55Q5.85 3.55 5.85-0.2L5.85-0.2Q5.85-2.8 9.9-12.2L9.9-12.2Q14.65-23.2 15.25-26.2L15.25-26.2Q10.1-26.2 6.18-24.68 2.25-23.15 2.25-20.35L2.25-20.35Q2.25-19.6 2.65-19 3.05-18.4 3.45-18.15L3.45-18.15Q4.25-17.65 5.25-17.15L5.25-17.15Q5.85-16.7 5.45-16.6L5.45-16.6Q5.3-16.6 5.1-16.65L5.1-16.65Q3.95-16.9 2.6-18.1 1.25-19.3 1.2-20.85L1.2-20.85Q1-21.35 1-21.75L1-21.75Q1-24.15 3.23-25.8 5.45-27.45 8.22-27.93 11-28.4 12.7-28.4 14.4-28.4 15.35-28.35L15.35-28.35Q15.3-28.7 15.05-29.1 14.8-29.5 15.35-29.65L15.35-29.65Q15.4-29.65 15.5-29.65L15.5-29.65Q16-29.65 16.45-28.9L16.45-28.9 16.7-28.2Q19.55-27.8 21.45-26.95L21.45-26.95Q22.2-26.65 22.65-25.93 23.1-25.2 22.35-25.25L22.35-25.25Q21.9-25.25 20.7-25.68 19.5-26.1 16.75-26.2L16.75-26.2Q16.5-21.15 14-15.45L14-15.45Q9.2-4.25 9.2-0.3L9.2-0.3Q9.2 2.25 11.25 2.25L11.25 2.25Q13.75 2.25 18.35-1.25L18.35-1.25Q23.8-5.3 28.85-13.35L28.85-13.35Q29.5-14.4 31.3-17.35L31.3-17.35Q34.75-23.05 37.1-25.95L37.1-25.95Q38.6-27.8 40.48-28.75 42.35-29.7 43.4-29.7 44.45-29.7 45-29.43 45.55-29.15 45.55-28.93 45.55-28.7 45.3-28.7L45.3-28.7 44.75-28.75Q43.1-28.75 40.1-25.1L40.1-25.1Q38.2-22.8 34.83-18.25 31.45-13.7 29.95-11.75L29.95-11.75Q23.55-3.7 18.9-0.08 14.25 3.55 10.35 3.55ZM37.5-13.85L37.5-13.85Q38.75-13.85 39-13.05L39-13.05Q39.1-12.6 38.87-12.18 38.65-11.75 38.55-11.5 38.45-11.25 38.4-11.1L38.4-11.1Q38.15-10.6 37.9-10.15L37.9-10.15Q35.05-4.45 34.9-2.9L34.9-2.9Q34.85-2.45 34.85-1.75 34.85-1.05 35.25-0.6L35.25-0.6Q35.95 0.2 37.25-0.5 38.55-1.2 40.87-3.3 43.2-5.4 44.65-7.4L44.65-7.4Q44.85-7.65 45.1-7.53 45.35-7.4 45.35-7.28 45.35-7.15 45.25-7L45.25-7Q44.5-5.65 42.55-3.55L42.55-3.55Q39.35-0.1 37.2 0.7L37.2 0.7Q35.95 1.15 35.1 1.15L35.1 1.15Q33.1 1.15 32.45-0.75L32.45-0.75Q32.35-1.1 32.35-1.6L32.35-1.6Q32.35-3.35 33.95-6.9L33.95-6.9Q33.7-6.35 32-4.4L32-4.4Q31.55-3.9 31.3-4.4L31.3-4.4Q31.25-4.5 31.25-4.67 31.25-4.85 31.45-5.1L31.45-5.1Q33.9-8.15 35.3-10.25L35.3-10.25Q35.2-10.5 35.4-10.9L35.4-10.9Q36.4-13.7 37.15-13.85L37.15-13.85Q37.3-13.85 37.5-13.85ZM41.45-20.5L41.45-20.5 41.05-18.9Q41.05-18.45 40.4-17.45 39.75-16.45 39.4-16.45L39.4-16.45Q37.25-16.45 37.25-17.5L37.25-17.5Q37.25-17.7 39.4-19.35L39.4-19.35 40.25-20Q41.05-20.7 41.25-20.7 41.45-20.7 41.45-20.5ZM57.1-10.6L57.1-10.6Q53.55-11.7 51.72-11.7 49.9-11.7 48.25-10.18 46.6-8.65 45.25-6.75L45.25-6.75Q44.45-5.8 44.15-6.05 43.85-6.3 44.2-6.85L44.2-6.85 47.55-11.45Q48.5-12.8 49.9-13.55L49.9-13.55Q50.35-13.8 50.75-13.8 51.15-13.8 51.6-13.78 52.05-13.75 52.37-13.73 52.7-13.7 53.75-13.43 54.8-13.15 55-13.1L55-13.1 58.85-12.2Q59.65-12.95 60.57-13.3 61.5-13.65 62-13.65 62.5-13.65 62.75-13.1L62.75-13.1Q62.8-11.9 61.37-11.05 59.95-10.2 59.32-10.2 58.7-10.2 58.45-10.25L58.45-10.25Q54.1-6.7 51.45-4.35 48.8-2 48.5-1.75L48.5-1.75 50-1Q53.45 1 55.2 1L55.2 1Q56.35 1 57.75 0.2 59.15-0.6 61.75-3.03 64.34-5.45 65.75-7.4L65.75-7.4Q66-7.75 66.32-7.63 66.65-7.5 66.65-7.4L66.65-7.4Q66.65-6.7 63.57-3.55 60.5-0.4 59 0.7L59 0.7Q56.5 2.55 54.15 2.55 51.8 2.55 48.7 0.6L48.7 0.6Q47.55-0.1 46.75-0.35L46.75-0.35Q44.5 1.35 43.35 1.35L43.35 1.35Q43.05 1.35 42.8 1.25L42.8 1.25Q42.45 0.9 42.45 0.3 42.45-0.3 43.05-1.05L43.05-1.05Q44-2.35 45.85-2.35L45.85-2.35Q46.75-2.35 47.8-2L47.8-2Q49.2-3.15 49.35-3.35L49.35-3.35Q51.85-5.5 57.1-10.6ZM108.89 1.25L108.89 1.25Q107.34 1.25 106.64-0.13 105.94-1.5 105.94-3.63 105.94-5.75 106.84-9.45L106.84-9.45Q105.09-9.6 100.89-10.15L100.89-10.15Q93.94-1.55 89.34 1.8L89.34 1.8Q85.39 4.75 81.14 4.75L81.14 4.75Q78.44 4.75 76.52 3.4 74.59 2.05 74.59-0.6L74.59-0.6Q74.59-1.1 74.84-1.53 75.09-1.95 75.34-1.75 75.59-1.55 75.59-0.6L75.59-0.6Q75.59 1.1 76.92 1.95 78.24 2.8 80.14 2.8L80.14 2.8Q84.24 2.8 88.22 0.13 92.19-2.55 99.04-10.35L99.04-10.35Q91.69-11.25 89.34-11.25L89.34-11.25Q82.99-11.25 81.49-7.1L81.49-7.1Q81.29-6.55 81.29-6.08 81.29-5.6 81.49-5.23 81.69-4.85 81.57-4.63 81.44-4.4 81.14-4.42 80.84-4.45 80.64-4.75L80.64-4.75Q80.09-5.7 80.09-6.6L80.09-6.6Q80.09-9.7 81.22-11.18 82.34-12.65 83.84-13.05L83.84-13.05Q85.64-13.55 88.04-13.55 90.44-13.55 100.14-11.65L100.14-11.65Q102.84-14.75 108.34-21.63 113.84-28.5 113.84-28.6L113.84-28.6 113.89-28.6Q113.94-28.65 114.14-28.75L114.14-28.75Q115.34-29.45 116.74-29.45L116.74-29.45Q117.24-29.45 117.24-28.95L117.24-28.95Q117.24-28.9 117.19-28.83 117.14-28.75 117.09-28.63 117.04-28.5 116.99-28.4L116.99-28.4Q112.19-20.45 109.54-10.5L109.54-10.5 109.39-10.15 110.64-10.1Q111.04-10.05 112.06-10.05 113.09-10.05 114.24-10.53 115.39-11 115.72-11.55 116.04-12.1 116.29-11.8 116.54-11.5 116.34-11.15L116.34-11.15Q115.79-10.15 114.39-9.7L114.39-9.7Q113.19-9.2 112.02-9.2 110.84-9.2 110.49-9.2L110.49-9.2 109.14-9.25Q108.19-4.9 108.19-2.33 108.19 0.25 109.59 0.25L109.59 0.25Q110.94 0.25 113.79-1.9 116.64-4.05 119.14-7.45L119.14-7.45Q119.29-7.65 119.54-7.55 119.79-7.45 119.79-7.3 119.79-7.15 119.72-6.93 119.64-6.7 118.94-5.8L118.94-5.8Q116.84-3 113.79-0.5L113.79-0.5Q111.59 1.25 108.89 1.25ZM111.64-23.9L111.64-23.9Q111.69-24 111.77-24.18 111.84-24.35 111.89-24.45L111.89-24.45Q105.64-15.9 101.84-11.25L101.84-11.25 107.09-10.4Q108.49-15.85 111.64-23.9ZM131.04-11L131.04-11 131.29-12Q131.29-13 130.54-13L130.54-13Q128.49-13 124.94-9.8 121.39-6.6 120.44-3.35L120.44-3.35Q120.19-2.5 120.19-1.83 120.19-1.15 120.49-0.7L120.49-0.7Q121.09 0.2 122.34 0.2 123.59 0.2 125.04-0.15L125.04-0.15Q128.24-1.05 130.36-2.73 132.49-4.4 134.84-7.4L134.84-7.4Q135.04-7.65 135.31-7.55 135.59-7.45 135.59-7.28 135.59-7.1 135.44-6.75L135.44-6.75Q133.04-3.5 130.41-1.48 127.79 0.55 124.34 1.15L124.34 1.15Q123.34 1.3 122.49 1.3L122.49 1.3Q120.04 1.3 118.76 0.1 117.49-1.1 117.49-2.55 117.49-4 118.19-5.7L118.19-5.7Q119.44-8.55 123.54-11.55 127.64-14.55 130.04-14.55L130.04-14.55Q130.64-14.55 131.19-14.4L131.19-14.4Q132.59-13.9 132.59-12.8L132.59-12.8Q132.59-12.05 132.04-11.1 131.49-10.15 131.21-10.43 130.94-10.7 131.04-11ZM146.79-11L146.79-11 147.04-12Q147.04-13 146.29-13L146.29-13Q144.24-13 140.69-9.8 137.14-6.6 136.19-3.35L136.19-3.35Q135.94-2.5 135.94-1.83 135.94-1.15 136.24-0.7L136.24-0.7Q136.84 0.2 138.09 0.2 139.34 0.2 140.79-0.15L140.79-0.15Q143.99-1.05 146.11-2.73 148.24-4.4 150.59-7.4L150.59-7.4Q150.79-7.65 151.06-7.55 151.34-7.45 151.34-7.28 151.34-7.1 151.19-6.75L151.19-6.75Q148.79-3.5 146.16-1.48 143.54 0.55 140.09 1.15L140.09 1.15Q139.09 1.3 138.24 1.3L138.24 1.3Q135.79 1.3 134.51 0.1 133.24-1.1 133.24-2.55 133.24-4 133.94-5.7L133.94-5.7Q135.19-8.55 139.29-11.55 143.39-14.55 145.79-14.55L145.79-14.55Q146.39-14.55 146.94-14.4L146.94-14.4Q148.34-13.9 148.34-12.8L148.34-12.8Q148.34-12.05 147.79-11.1 147.24-10.15 146.96-10.43 146.69-10.7 146.79-11ZM160.33-5.5L160.33-5.5Q161.23-7.35 161.23-8.35 161.23-9.35 161.01-9.93 160.78-10.5 161.21-10.9 161.63-11.3 162.28-11.2L162.28-11.2Q163.28-10.95 163.28-8.95 163.28-6.95 160.93-3.7L160.93-3.7Q160.98-2.35 162.33-2.35 163.68-2.35 166.43-5.25L166.43-5.25Q167.73-6.75 168.06-7.2 168.38-7.65 168.63-7.53 168.88-7.4 168.88-7.3L168.88-7.3Q168.88-6.8 167.08-4.7L167.08-4.7Q164.23-1.2 162.03-1.2L162.03-1.2Q160.58-1.2 159.98-2.45L159.98-2.45Q158.98-1.4 158.03-0.5L158.03-0.5Q156.08 1.15 153.68 1.15L153.68 1.15Q152.33 1.15 151.43 0.5L151.43 0.5Q149.68-0.55 149.68-3.25L149.68-3.25Q149.68-6.2 151.68-9.25L151.68-9.25Q152.83-11.05 154.38-12.4L154.38-12.4Q156.83-14.55 159.03-14.55L159.03-14.55Q159.58-14.55 160.08-14.4L160.08-14.4Q161.58-13.9 161.58-12.5L161.58-12.5Q161.58-11.35 160.98-11.35L160.98-11.35Q160.73-11.45 160.73-12.1L160.73-12.1Q160.73-13 159.73-13L159.73-13Q157.98-13 155.23-9.8 152.48-6.6 151.93-3.35L151.93-3.35Q151.83-2.8 151.83-2.13 151.83-1.45 152.28-0.58 152.73 0.3 153.96 0.3 155.18 0.3 156.63-0.8 158.08-1.9 159.23-3.6L159.23-3.6 159.08-3.9Q158.88-4.7 159.28-5.2 159.68-5.7 160.33-5.5ZM191.03-7Q190.28-5.65 188.33-3.55 186.38-1.45 184.83-0.3L184.83-0.3Q182.83 1.15 180.48 1.15L180.48 1.15Q180.03 1.15 179.31 0.73 178.58 0.3 178.33-0.5 178.08-1.3 178.08-2.05L178.08-2.05Q178.08-4.65 179.08-7.2L179.08-7.2Q178.93-7.1 177.71-5.08 176.48-3.05 174.71-1.25 172.93 0.55 171.13 0.55L171.13 0.55Q170.28 0.55 169.18 0.1L169.18 0.1Q167.18-0.8 167.18-3.2L167.18-3.2Q167.18-6.15 169.21-9.28 171.23-12.4 171.78-12.6L171.78-12.6Q172.53-12.8 173.21-12.8 173.88-12.8 174.58-12.53 175.28-12.25 174.38-11.6L174.38-11.6Q170.93-8.45 169.48-4.6L169.48-4.6Q168.93-3.1 168.93-2.08 168.93-1.05 169.46-0.75 169.98-0.45 170.48-0.45L170.48-0.45Q171.68-0.45 173.76-2.13 175.83-3.8 179.48-9.1L179.48-9.1Q179.98-9.85 181.23-12.03 182.48-14.2 182.73-14.6L182.73-14.6Q183.53-14.6 184.61-14.23 185.68-13.85 185.33-13.25L185.33-13.25Q182.93-9.25 181.96-7.35 180.98-5.45 180.63-2.9L180.63-2.9Q180.58-2.45 180.58-1.75 180.58-1.05 180.98-0.6L180.98-0.6Q181.73 0.2 183.06-0.53 184.38-1.25 186.68-3.33 188.98-5.4 190.38-7.4L190.38-7.4Q190.58-7.65 190.86-7.53 191.13-7.4 191.13-7.28 191.13-7.15 191.03-7L191.03-7ZM203.68-14.2L203.68-14.2Q204.83-14.2 204.83-12.98 204.83-11.75 203.68-9.6 202.53-7.45 201.98-6.1L201.98-6.1Q201.03-3.8 201.03-2.43 201.03-1.05 201.43-0.6L201.43-0.6Q202.18 0.2 203.48-0.53 204.78-1.25 207.1-3.33 209.43-5.4 210.83-7.4L210.83-7.4Q211.03-7.65 211.3-7.53 211.58-7.4 211.58-7.28 211.58-7.15 211.48-7L211.48-7Q210.73-5.65 208.78-3.55 206.83-1.45 205.03-0.18 203.23 1.1 201.48 1.1L201.48 1.1Q199.78 1.05 199.08 0.33 198.38-0.4 198.38-1.5 198.38-2.6 198.58-3.63 198.78-4.65 199.33-6L199.33-6Q200.23-8.15 200.9-9.35 201.58-10.55 201.58-10.93 201.58-11.3 201.18-11.3L201.18-11.3Q200.38-11.3 198.13-9.35L198.13-9.35Q196.58-7.9 193.55-3.88 190.53 0.15 190.13 0.4L190.13 0.4Q188.33 1.3 187.88 1.3 187.43 1.3 187.43 1.15 187.43 1 187.53 0.73 187.63 0.45 188.5-2 189.38-4.45 190.4-7.38 191.43-10.3 191.65-10.9 191.88-11.5 191.95-11.93 192.03-12.35 192.13-12.65 192.23-12.95 192.5-13.33 192.78-13.7 193.23-13.73 193.68-13.75 194.38-13.63 195.08-13.5 195.08-13L195.08-13Q195.08-12.65 194.53-11.48 193.98-10.3 191.38-3.4L191.38-3.4Q193.18-5.6 195.93-8.47 198.68-11.35 200.58-12.85L200.58-12.85Q202.48-14.2 203.68-14.2ZM217.58-13.95L218.23-14Q222.08-14.35 222.9-14.35 223.73-14.35 223.73-14.1L223.73-14.1Q223.73-13.8 222.55-13.48 221.38-13.15 216.83-12.65L216.83-12.65Q216.58-12.2 216.23-11.6L216.23-11.6Q215.48-10.4 215.43-10.15L215.43-10.15Q212.58-4.45 212.43-2.9L212.43-2.9Q212.38-2.45 212.38-1.75 212.38-1.05 212.78-0.6L212.78-0.6Q213.48 0.2 214.78-0.5 216.08-1.2 218.4-3.3 220.73-5.4 222.18-7.4L222.18-7.4Q222.38-7.65 222.68-7.5L222.68-7.5Q223.43-7.15 220.08-3.55L220.08-3.55Q216.88-0.1 214.73 0.7L214.73 0.7Q213.48 1.15 212.63 1.15L212.63 1.15Q210.63 1.15 209.98-0.75L209.98-0.75Q209.88-1.1 209.88-1.6L209.88-1.6Q209.88-3.35 211.48-6.9L211.48-6.9Q211.23-6.35 209.53-4.4L209.53-4.4Q209.08-3.9 208.83-4.4L208.83-4.4Q208.78-4.5 208.78-4.67 208.78-4.85 208.98-5.1L208.98-5.1Q211.43-8.15 212.83-10.25L212.83-10.25Q212.83-10.3 213.93-12.35L213.93-12.35Q213.43-12.25 212.9-12.25 212.38-12.25 212.13-12.58 211.88-12.9 212.08-13.35L212.08-13.35Q212.43-14.15 214.73-14.25L214.73-14.25Q214.78-14.35 214.93-14.35L214.93-14.35 217.43-19Q217.63-19.4 217.88-19.83 218.13-20.25 218.25-20.48 218.38-20.7 218.53-20.95 218.68-21.2 218.78-21.3 218.88-21.4 218.98-21.5L218.98-21.5Q219.18-21.8 220.15-21.8 221.13-21.8 221.48-21.25L221.48-21.25Q221.63-21.05 221.63-20.58 221.63-20.1 221.28-19.53 220.93-18.95 220.53-18.7 220.13-18.45 219.98-18.15L219.98-18.15 217.58-13.95ZM226.32-13.85L226.32-13.85Q227.57-13.85 227.82-13.05L227.82-13.05Q227.92-12.6 227.7-12.18 227.47-11.75 227.37-11.5 227.27-11.25 227.22-11.1L227.22-11.1Q226.97-10.6 226.72-10.15L226.72-10.15Q223.87-4.45 223.72-2.9L223.72-2.9Q223.67-2.45 223.67-1.75 223.67-1.05 224.07-0.6L224.07-0.6Q224.77 0.2 226.07-0.5 227.37-1.2 229.7-3.3 232.02-5.4 233.47-7.4L233.47-7.4Q233.67-7.65 233.92-7.53 234.17-7.4 234.17-7.28 234.17-7.15 234.07-7L234.07-7Q233.32-5.65 231.37-3.55L231.37-3.55Q228.17-0.1 226.02 0.7L226.02 0.7Q224.77 1.15 223.92 1.15L223.92 1.15Q221.92 1.15 221.27-0.75L221.27-0.75Q221.17-1.1 221.17-1.6L221.17-1.6Q221.17-3.35 222.77-6.9L222.77-6.9Q222.52-6.35 220.82-4.4L220.82-4.4Q220.37-3.9 220.12-4.4L220.12-4.4Q220.07-4.5 220.07-4.67 220.07-4.85 220.27-5.1L220.27-5.1Q222.72-8.15 224.12-10.25L224.12-10.25Q224.02-10.5 224.22-10.9L224.22-10.9Q225.22-13.7 225.97-13.85L225.97-13.85Q226.12-13.85 226.32-13.85ZM230.27-20.5L230.27-20.5 229.87-18.9Q229.87-18.45 229.22-17.45 228.57-16.45 228.22-16.45L228.22-16.45Q226.07-16.45 226.07-17.5L226.07-17.5Q226.07-17.7 228.22-19.35L228.22-19.35 229.07-20Q229.87-20.7 230.07-20.7 230.27-20.7 230.27-20.5ZM246.72-14.2L246.72-14.2Q247.87-14.2 247.87-12.98 247.87-11.75 246.72-9.6 245.57-7.45 245.02-6.1L245.02-6.1Q244.07-3.8 244.07-2.43 244.07-1.05 244.47-0.6L244.47-0.6Q245.22 0.2 246.52-0.53 247.82-1.25 250.15-3.33 252.47-5.4 253.87-7.4L253.87-7.4Q254.07-7.65 254.35-7.53 254.62-7.4 254.62-7.28 254.62-7.15 254.52-7L254.52-7Q253.77-5.65 251.82-3.55 249.87-1.45 248.07-0.18 246.27 1.1 244.52 1.1L244.52 1.1Q242.82 1.05 242.12 0.33 241.42-0.4 241.42-1.5 241.42-2.6 241.62-3.63 241.82-4.65 242.37-6L242.37-6Q243.27-8.15 243.95-9.35 244.62-10.55 244.62-10.93 244.62-11.3 244.22-11.3L244.22-11.3Q243.42-11.3 241.17-9.35L241.17-9.35Q239.62-7.9 236.6-3.88 233.57 0.15 233.17 0.4L233.17 0.4Q231.37 1.3 230.92 1.3 230.47 1.3 230.47 1.15 230.47 1 230.57 0.73 230.67 0.45 231.55-2 232.42-4.45 233.45-7.38 234.47-10.3 234.7-10.9 234.92-11.5 235-11.93 235.07-12.35 235.17-12.65 235.27-12.95 235.55-13.33 235.82-13.7 236.27-13.73 236.72-13.75 237.42-13.63 238.12-13.5 238.12-13L238.12-13Q238.12-12.65 237.57-11.48 237.02-10.3 234.42-3.4L234.42-3.4Q236.22-5.6 238.97-8.47 241.72-11.35 243.62-12.85L243.62-12.85Q245.52-14.2 246.72-14.2ZM251.92 19.05L251.92 19.05Q251.52 19.05 250.92 18.9L250.92 18.9Q248.37 18.25 248.37 16.23 248.37 14.2 250.99 11.15 253.62 8.1 262.07 2.5L262.07 2.5Q265.67-4.85 267.07-9.15L267.07-9.15Q264.27-5.75 263.07-4.45L263.07-4.45Q258.57 0.55 255.82 0.55L255.82 0.55Q255.02 0.55 254.09 0.08 253.17-0.4 252.52-1.28 251.87-2.15 251.87-3.15L251.87-3.15Q251.87-5.8 255.57-9.1L255.57-9.1Q257.77-11.1 260.17-12.5 262.57-13.9 263.97-14.25 265.37-14.6 266.67-14.6 267.97-14.6 268.97-13.9 269.97-13.2 269.97-12.5L269.97-12.5Q269.97-12.1 269.57-12.25L269.57-12.25Q269.02-13.2 267.14-13.2 265.27-13.2 262.89-11.98 260.52-10.75 258.62-9.08 256.72-7.4 255.39-5.28 254.07-3.15 254.07-2.15L254.07-2.15Q254.07-0.4 255.07-0.4L255.07-0.4Q256.47-0.4 259.37-2.7L259.37-2.7Q263.67-6.05 267.62-10.85L267.62-10.85Q268.27-11.8 270.32-10.8L270.32-10.8Q271.12-10.4 270.97-10.1L270.97-10.1Q270.32-8.65 268.59-5.08 266.87-1.5 266.02 0.3L266.02 0.3Q267.17-0.3 269.94-2.73 272.72-5.15 274.82-7.6L274.82-7.6Q275.92-8.9 275.92-8L275.92-8Q275.92-6.75 269.92-1.4L269.92-1.4Q266.47 1.7 265.02 2.5L265.02 2.5Q260.77 11.25 259.32 13.5L259.32 13.5Q255.57 19.05 251.92 19.05ZM261.12 4.4L261.12 4.4Q255.12 8.9 252.52 11.53 249.92 14.15 249.92 16.45L249.92 16.45Q249.92 17.15 250.37 17.45 250.82 17.75 251.32 17.75 251.82 17.75 252.77 17 253.72 16.25 254.39 15.53 255.07 14.8 255.57 14.18 256.07 13.55 256.69 12.58 257.32 11.6 257.67 11.05 258.02 10.5 258.64 9.33 259.27 8.15 259.49 7.73 259.72 7.3 260.34 6 260.97 4.7 261.12 4.4Z" opacity="1" transform="matrix(1,0,0,1,0,0)" fill="#755bb4" class="wordmark-text-0" data-fill-palette-color="primary" id="text-0"></path></svg></g></svg></g><g transform="matrix(1,0,0,1,0,86.6831169361702)"><svg viewBox="0 0 375.74399999999997 23.012710719530094" height="23.012710719530094" width="375.74399999999997"><g transform="matrix(1,0,0,1,0,0)"><svg width="375.74399999999997" viewBox="1.8799999952316284 -37.5 817.0999755859375 50.04999923706055" height="23.012710719530094" data-palette-color="#755bb4"><path d="M19.65 0.7L19.65 0.7Q14.45 0.7 10.44-1.55 6.43-3.8 4.15-7.89 1.88-11.98 1.88-17.5L1.88-17.5Q1.88-23.03 4.19-27.11 6.5-31.2 10.58-33.45 14.65-35.7 19.85-35.7L19.85-35.7Q22.55-35.7 24.93-35.13 27.3-34.55 29.08-33.65L29.08-33.65 28.48-28.53Q26.6-29.43 24.45-30.03 22.3-30.63 19.8-30.63L19.8-30.63Q15.85-30.63 13.2-28.89 10.55-27.15 9.19-24.19 7.83-21.23 7.83-17.5L7.83-17.5Q7.83-13.78 9.16-10.81 10.5-7.85 13.14-6.11 15.78-4.38 19.68-4.38L19.68-4.38Q22.25-4.38 24.36-4.94 26.48-5.5 28.48-6.45L28.48-6.45 29.08-1.33Q27.15-0.45 24.79 0.13 22.43 0.7 19.65 0.7ZM38.82 0L33.57 0 33.57-37.5 38.82-37.5 38.82-20.73 37.32-21.25Q38.97-22.95 40.91-24.06 42.85-25.18 45.72-25.18L45.72-25.18Q48.95-25.18 51.05-23.74 53.15-22.3 54.17-19.73 55.2-17.15 55.2-13.75L55.2-13.75 55.2 0 49.97 0 49.97-13.25Q49.97-17.07 48.65-18.89 47.32-20.7 44.47-20.7L44.47-20.7Q42.2-20.7 40.59-19.55 38.97-18.4 37.92-16.48L37.92-16.48 38.82-19.48 38.82 0ZM66.5 0.5L66.5 0.5Q64.35 0.5 62.67-0.41 61-1.33 60.03-2.95 59.07-4.58 59.07-6.78L59.07-6.78Q59.07-8.88 60.02-10.36 60.97-11.85 62.55-12.85 64.12-13.85 66.01-14.44 67.9-15.03 69.85-15.3 71.8-15.58 73.47-15.6L73.47-15.6Q73.45-18.53 72.22-19.56 71-20.6 68.5-20.6L68.5-20.6Q67-20.6 65.42-20.16 63.85-19.73 61.87-18.53L61.87-18.53 61.27-22.78Q63.07-23.88 65.3-24.53 67.52-25.18 69.9-25.18L69.9-25.18Q72.87-25.18 74.82-24.13 76.77-23.08 77.75-20.65 78.72-18.23 78.72-14.15L78.72-14.15 78.72-8.4Q78.72-6.6 78.88-5.59 79.05-4.58 79.6-4.15 80.15-3.73 81.27-3.73L81.27-3.73 81.87-3.73 81.22 0.5 80.07 0.5Q78.22 0.5 77.08 0.1 75.95-0.3 75.25-1.04 74.55-1.78 74.07-2.8L74.07-2.8Q72.75-1.3 70.78-0.4 68.82 0.5 66.5 0.5ZM68.1-3.6L68.1-3.6Q69.5-3.6 70.98-4.3 72.47-5 73.5-6.25L73.5-6.25 73.5-12.05Q70.7-11.93 68.68-11.39 66.67-10.85 65.58-9.78 64.5-8.7 64.5-7.03L64.5-7.03Q64.5-5.23 65.45-4.41 66.4-3.6 68.1-3.6ZM90.69 0L85.29 0 85.29-24.7 89.89-24.7 90.27-21.25Q91.77-23.05 93.48-24.13 95.19-25.2 97.19-25.2L97.19-25.2Q97.79-25.2 98.32-25.08L98.32-25.08 97.87-19.65Q97.44-19.75 97.01-19.8 96.57-19.85 96.09-19.85L96.09-19.85Q94.29-19.85 92.81-19.04 91.32-18.23 90.69-17.2L90.69-17.2 90.69 0ZM113.94 0.5L109.72 0.5Q107.39 0.5 105.95-0.4 104.52-1.3 103.85-2.7 103.19-4.1 103.19-5.65L103.19-5.65 103.19-20.53 99.27-20.53 99.74-24.7 103.19-24.7 103.19-30.53 108.42-31.08 108.42-24.7 114.47-24.7 114.47-20.53 108.42-20.53 108.42-8.3Q108.42-6.15 108.67-5.19 108.92-4.23 109.89-3.98 110.87-3.73 112.99-3.73L112.99-3.73 114.39-3.73 113.94 0.5ZM123.61 0L118.39 0 118.39-24.7 123.61-24.7 123.61 0ZM123.61-29.5L118.39-29.5 118.39-35 123.61-35 123.61-29.5ZM134.81 0L129.59 0 129.59-24.7 134.06-24.7 134.69-20.03 133.09-21.28Q135.11-23.38 137.31-24.28 139.51-25.18 141.91-25.18L141.91-25.18Q147.04-25.18 149.36-22.04 151.69-18.9 151.69-13.7L151.69-13.7 151.69 0 146.46 0 146.46-13.48Q146.46-17.2 145.14-18.95 143.81-20.7 140.66-20.7L140.66-20.7Q138.34-20.7 136.57-19.64 134.81-18.57 134.01-16.48L134.01-16.48 134.81-19.35 134.81 0ZM167.28 12.55L167.28 12.55Q163.88 12.55 161.26 11.7 158.63 10.85 157.15 9.24 155.66 7.63 155.66 5.3L155.66 5.3Q155.66 3.35 156.76 1.91 157.86 0.48 159.83-0.5L159.83-0.5Q158.73-1.1 158.12-1.94 157.51-2.78 157.51-3.8L157.51-3.8Q157.51-4.95 158.2-5.85 158.88-6.75 160.26-7.33L160.26-7.33Q158.26-8.63 157.21-10.78 156.16-12.93 156.16-15.5L156.16-15.5Q156.16-18.18 157.35-20.39 158.53-22.6 160.8-23.9 163.06-25.2 166.28-25.2L166.28-25.2Q167.98-25.2 169.47-24.74 170.96-24.28 172.16-23.45L172.16-23.45Q173.13-24 174.62-24.39 176.11-24.78 177.93-24.78L177.93-24.78Q178.18-24.78 178.41-24.78 178.63-24.78 178.86-24.78L178.86-24.78 178.36-21.4Q177.96-21.4 177.56-21.4 177.16-21.4 176.76-21.4L176.76-21.4Q176.51-21.4 175.83-21.35 175.16-21.3 174.53-21.18L174.53-21.18Q175.46-19.98 175.93-18.53 176.41-17.07 176.41-15.5L176.41-15.5Q176.41-12.73 175.22-10.5 174.03-8.28 171.77-6.95 169.51-5.63 166.28-5.63L166.28-5.63Q165.48-5.63 164.72-5.74 163.96-5.85 163.26-6.03L163.26-6.03Q162.36-5.73 162.36-4.95L162.36-4.95Q162.36-4.35 163.08-3.96 163.81-3.58 165.38-3.33L165.38-3.33 170.98-2.5Q174.98-1.9 177.2-0.2 179.41 1.5 179.41 4.65L179.41 4.65Q179.41 7.18 177.95 8.94 176.48 10.7 173.76 11.63 171.03 12.55 167.28 12.55ZM167.63 8.25L167.63 8.25Q170.96 8.25 172.71 7.41 174.46 6.58 174.46 4.9L174.46 4.9Q174.46 3.5 173.31 2.78 172.16 2.05 169.86 1.65L169.86 1.65 163.51 0.65Q162.21 1.2 161.27 2.14 160.33 3.08 160.33 4.42L160.33 4.42Q160.33 6.4 162.3 7.33 164.26 8.25 167.63 8.25ZM166.28-9.65L166.28-9.65Q168.88-9.65 170.22-11.26 171.56-12.88 171.56-15.48L171.56-15.48Q171.56-18.03 170.22-19.61 168.88-21.2 166.28-21.2L166.28-21.2Q163.68-21.2 162.35-19.61 161.01-18.03 161.01-15.48L161.01-15.48Q161.01-12.88 162.35-11.26 163.68-9.65 166.28-9.65ZM213.55-13.83L213.55-8.95 198.7-8.95 198.7-13.83 213.55-13.83ZM215.85 0L205.38-29.68 206.88-29.68 196.4 0 190.9 0 203.4-35 208.85-35 221.35 0 215.85 0ZM242.4 0L236.8 0 236.8-35 248.75-35Q252.47-35 255.2-33.84 257.92-32.68 259.39-30.18 260.85-27.68 260.85-23.68L260.85-23.68Q260.85-19.68 259.39-17.14 257.92-14.6 255.21-13.4 252.5-12.2 248.8-12.2L248.8-12.2 242.4-12.2 242.4 0ZM242.4-30.28L242.4-16.93 248.07-16.93Q251.67-16.93 253.47-18.55 255.27-20.18 255.27-23.6L255.27-23.6Q255.27-27.05 253.52-28.66 251.77-30.28 248.02-30.28L248.02-30.28 242.4-30.28ZM269.85 0.5L269.85 0.5Q267.69 0.5 266.02-0.41 264.35-1.33 263.38-2.95 262.42-4.58 262.42-6.78L262.42-6.78Q262.42-8.88 263.37-10.36 264.32-11.85 265.9-12.85 267.47-13.85 269.36-14.44 271.25-15.03 273.19-15.3 275.15-15.58 276.82-15.6L276.82-15.6Q276.8-18.53 275.57-19.56 274.35-20.6 271.85-20.6L271.85-20.6Q270.35-20.6 268.77-20.16 267.19-19.73 265.22-18.53L265.22-18.53 264.62-22.78Q266.42-23.88 268.65-24.53 270.87-25.18 273.25-25.18L273.25-25.18Q276.22-25.18 278.17-24.13 280.12-23.08 281.1-20.65 282.07-18.23 282.07-14.15L282.07-14.15 282.07-8.4Q282.07-6.6 282.23-5.59 282.4-4.58 282.94-4.15 283.5-3.73 284.62-3.73L284.62-3.73 285.22-3.73 284.57 0.5 283.42 0.5Q281.57 0.5 280.43 0.1 279.3-0.3 278.6-1.04 277.9-1.78 277.42-2.8L277.42-2.8Q276.1-1.3 274.13-0.4 272.17 0.5 269.85 0.5ZM271.44-3.6L271.44-3.6Q272.85-3.6 274.33-4.3 275.82-5 276.85-6.25L276.85-6.25 276.85-12.05Q274.05-11.93 272.03-11.39 270.02-10.85 268.93-9.78 267.85-8.7 267.85-7.03L267.85-7.03Q267.85-5.23 268.8-4.41 269.75-3.6 271.44-3.6ZM300.74 0.5L296.52 0.5Q294.19 0.5 292.76-0.4 291.32-1.3 290.66-2.7 289.99-4.1 289.99-5.65L289.99-5.65 289.99-20.53 286.07-20.53 286.54-24.7 289.99-24.7 289.99-30.53 295.22-31.08 295.22-24.7 301.27-24.7 301.27-20.53 295.22-20.53 295.22-8.3Q295.22-6.15 295.47-5.19 295.72-4.23 296.69-3.98 297.67-3.73 299.79-3.73L299.79-3.73 301.19-3.73 300.74 0.5ZM310.39 0L305.14 0 305.14-37.5 310.39-37.5 310.39-20.73 308.89-21.25Q310.54-22.95 312.48-24.06 314.42-25.18 317.29-25.18L317.29-25.18Q320.52-25.18 322.62-23.74 324.72-22.3 325.74-19.73 326.77-17.15 326.77-13.75L326.77-13.75 326.77 0 321.54 0 321.54-13.25Q321.54-17.07 320.22-18.89 318.89-20.7 316.04-20.7L316.04-20.7Q313.77-20.7 312.15-19.55 310.54-18.4 309.49-16.48L309.49-16.48 310.39-19.48 310.39 0ZM357.04 0L351.59 0 351.59-29.9 341.51-29.9 341.51-35 367.11-35 367.11-29.9 357.04-29.9 357.04 0ZM377.98 0.5L377.98 0.5Q374.06 0.5 371.27-1.24 368.48-2.98 367.02-5.89 365.56-8.8 365.56-12.33L365.56-12.33Q365.56-15.88 367.02-18.8 368.48-21.73 371.27-23.46 374.06-25.2 377.98-25.2L377.98-25.2Q381.93-25.2 384.72-23.46 387.51-21.73 388.97-18.8 390.43-15.88 390.43-12.33L390.43-12.33Q390.43-8.8 388.97-5.89 387.51-2.98 384.72-1.24 381.93 0.5 377.98 0.5ZM377.98-3.98L377.98-3.98Q381.43-3.98 383.27-6.23 385.11-8.47 385.11-12.33L385.11-12.33Q385.11-16.2 383.27-18.48 381.43-20.75 377.98-20.75L377.98-20.75Q374.58-20.75 372.73-18.48 370.88-16.2 370.88-12.33L370.88-12.33Q370.88-8.47 372.73-6.23 374.58-3.98 377.98-3.98ZM412.58 0L407.13 0 407.13-35 428.58-35 428.58-29.9 412.58-29.9 412.58-20.83 424.93-20.83 424.93-15.73 412.58-15.73 412.58 0ZM437.25 0L432.03 0 432.03-24.7 437.25-24.7 437.25 0ZM437.25-29.5L432.03-29.5 432.03-35 437.25-35 437.25-29.5ZM448.45 0L443.22 0 443.22-24.7 447.7-24.7 448.32-20.03 446.72-21.28Q448.75-23.38 450.95-24.28 453.15-25.18 455.55-25.18L455.55-25.18Q460.67-25.18 463-22.04 465.32-18.9 465.32-13.7L465.32-13.7 465.32 0 460.1 0 460.1-13.48Q460.1-17.2 458.77-18.95 457.45-20.7 454.3-20.7L454.3-20.7Q451.97-20.7 450.21-19.64 448.45-18.57 447.65-16.48L447.65-16.48 448.45-19.35 448.45 0ZM476.6 0.5L476.6 0.5Q474.45 0.5 472.77-0.41 471.1-1.33 470.13-2.95 469.17-4.58 469.17-6.78L469.17-6.78Q469.17-8.88 470.12-10.36 471.07-11.85 472.65-12.85 474.22-13.85 476.11-14.44 478-15.03 479.95-15.3 481.9-15.58 483.57-15.6L483.57-15.6Q483.55-18.53 482.32-19.56 481.1-20.6 478.6-20.6L478.6-20.6Q477.1-20.6 475.52-20.16 473.95-19.73 471.97-18.53L471.97-18.53 471.37-22.78Q473.17-23.88 475.4-24.53 477.62-25.18 480-25.18L480-25.18Q482.97-25.18 484.92-24.13 486.87-23.08 487.85-20.65 488.82-18.23 488.82-14.15L488.82-14.15 488.82-8.4Q488.82-6.6 488.98-5.59 489.15-4.58 489.7-4.15 490.25-3.73 491.37-3.73L491.37-3.73 491.97-3.73 491.32 0.5 490.17 0.5Q488.32 0.5 487.18 0.1 486.05-0.3 485.35-1.04 484.65-1.78 484.17-2.8L484.17-2.8Q482.85-1.3 480.88-0.4 478.92 0.5 476.6 0.5ZM478.2-3.6L478.2-3.6Q479.6-3.6 481.08-4.3 482.57-5 483.6-6.25L483.6-6.25 483.6-12.05Q480.8-11.93 478.78-11.39 476.77-10.85 475.68-9.78 474.6-8.7 474.6-7.03L474.6-7.03Q474.6-5.23 475.55-4.41 476.5-3.6 478.2-3.6ZM500.62 0L495.39 0 495.39-24.7 499.87-24.7 500.49-20.03 498.89-21.28Q500.92-23.38 503.12-24.28 505.32-25.18 507.72-25.18L507.72-25.18Q512.84-25.18 515.17-22.04 517.49-18.9 517.49-13.7L517.49-13.7 517.49 0 512.27 0 512.27-13.48Q512.27-17.2 510.94-18.95 509.62-20.7 506.47-20.7L506.47-20.7Q504.14-20.7 502.38-19.64 500.62-18.57 499.82-16.48L499.82-16.48 500.62-19.35 500.62 0ZM534.59 0.5L534.59 0.5Q530.39 0.5 527.53-1.23 524.67-2.95 523.22-5.84 521.76-8.72 521.76-12.25L521.76-12.25Q521.76-15.88 523.19-18.81 524.62-21.75 527.51-23.48 530.42-25.2 534.89-25.2L534.89-25.2Q536.89-25.2 538.59-24.79 540.29-24.38 541.59-23.7L541.59-23.7 540.97-19.3Q539.69-19.93 538.19-20.31 536.69-20.7 535.09-20.7L535.09-20.7Q531.22-20.7 529.15-18.45 527.09-16.2 527.09-12.38L527.09-12.38Q527.09-8.65 529.12-6.3 531.14-3.95 535.01-3.95L535.01-3.95Q536.62-3.95 538.13-4.36 539.64-4.78 541.01-5.5L541.01-5.5 541.59-1.2Q540.47-0.5 538.58 0 536.69 0.5 534.59 0.5ZM551.14 0L545.91 0 545.91-24.7 551.14-24.7 551.14 0ZM551.14-29.5L545.91-29.5 545.91-35 551.14-35 551.14-29.5ZM562.68 0.5L562.68 0.5Q560.53 0.5 558.86-0.41 557.18-1.33 556.22-2.95 555.26-4.58 555.26-6.78L555.26-6.78Q555.26-8.88 556.21-10.36 557.16-11.85 558.74-12.85 560.31-13.85 562.2-14.44 564.09-15.03 566.03-15.3 567.99-15.58 569.66-15.6L569.66-15.6Q569.63-18.53 568.41-19.56 567.18-20.6 564.68-20.6L564.68-20.6Q563.18-20.6 561.61-20.16 560.03-19.73 558.06-18.53L558.06-18.53 557.46-22.78Q559.26-23.88 561.49-24.53 563.71-25.18 566.09-25.18L566.09-25.18Q569.06-25.18 571.01-24.13 572.96-23.08 573.93-20.65 574.91-18.23 574.91-14.15L574.91-14.15 574.91-8.4Q574.91-6.6 575.07-5.59 575.24-4.58 575.78-4.15 576.34-3.73 577.46-3.73L577.46-3.73 578.06-3.73 577.41 0.5 576.26 0.5Q574.41 0.5 573.27 0.1 572.13-0.3 571.43-1.04 570.74-1.78 570.26-2.8L570.26-2.8Q568.93-1.3 566.97-0.4 565.01 0.5 562.68 0.5ZM564.28-3.6L564.28-3.6Q565.68-3.6 567.17-4.3 568.66-5 569.68-6.25L569.68-6.25 569.68-12.05Q566.88-11.93 564.87-11.39 562.86-10.85 561.77-9.78 560.68-8.7 560.68-7.03L560.68-7.03Q560.68-5.23 561.63-4.41 562.59-3.6 564.28-3.6ZM589.63 0.5L587.83 0.5Q585.53 0.5 584.13-0.38 582.73-1.25 582.09-2.66 581.46-4.08 581.46-5.68L581.46-5.68 581.46-37.5 586.68-37.5 586.68-8.25Q586.68-6.2 586.94-5.24 587.21-4.28 587.97-4 588.73-3.73 590.23-3.73L590.23-3.73 589.63 0.5ZM611.65 0L606.05 0 606.05-35 618-35Q621.73-35 624.45-33.84 627.18-32.68 628.64-30.18 630.1-27.68 630.1-23.68L630.1-23.68Q630.1-19.68 628.64-17.14 627.18-14.6 624.46-13.4 621.75-12.2 618.05-12.2L618.05-12.2 611.65-12.2 611.65 0ZM611.65-30.28L611.65-16.93 617.33-16.93Q620.93-16.93 622.73-18.55 624.53-20.18 624.53-23.6L624.53-23.6Q624.53-27.05 622.78-28.66 621.03-30.28 617.28-30.28L617.28-30.28 611.65-30.28ZM639.2 0L633.8 0 633.8-24.7 638.4-24.7 638.77-21.25Q640.27-23.05 641.99-24.13 643.7-25.2 645.7-25.2L645.7-25.2Q646.3-25.2 646.82-25.08L646.82-25.08 646.37-19.65Q645.95-19.75 645.51-19.8 645.07-19.85 644.6-19.85L644.6-19.85Q642.8-19.85 641.31-19.04 639.82-18.23 639.2-17.2L639.2-17.2 639.2 0ZM660.3 0.5L660.3 0.5Q656.37 0.5 653.58-1.24 650.8-2.98 649.33-5.89 647.87-8.8 647.87-12.33L647.87-12.33Q647.87-15.88 649.33-18.8 650.8-21.73 653.58-23.46 656.37-25.2 660.3-25.2L660.3-25.2Q664.25-25.2 667.03-23.46 669.82-21.73 671.28-18.8 672.75-15.88 672.75-12.33L672.75-12.33Q672.75-8.8 671.28-5.89 669.82-2.98 667.03-1.24 664.25 0.5 660.3 0.5ZM660.3-3.98L660.3-3.98Q663.75-3.98 665.58-6.23 667.42-8.47 667.42-12.33L667.42-12.33Q667.42-16.2 665.58-18.48 663.75-20.75 660.3-20.75L660.3-20.75Q656.9-20.75 655.05-18.48 653.2-16.2 653.2-12.33L653.2-12.33Q653.2-8.47 655.05-6.23 656.9-3.98 660.3-3.98ZM684.27 0.5L684.27 0.5Q681.34 0.5 679.27-0.15 677.19-0.8 675.84-1.53L675.84-1.53 676.39-6.28Q677.67-5.4 679.63-4.59 681.59-3.78 684.07-3.78L684.07-3.78Q686.22-3.78 687.36-4.49 688.49-5.2 688.49-6.6L688.49-6.6Q688.49-7.75 687.82-8.46 687.14-9.18 686.04-9.65 684.94-10.13 683.72-10.53L683.72-10.53Q681.79-11.15 680.08-11.98 678.37-12.8 677.31-14.19 676.24-15.58 676.24-17.88L676.24-17.88Q676.24-19.88 677.24-21.55 678.24-23.23 680.28-24.21 682.32-25.2 685.47-25.2L685.47-25.2Q687.87-25.2 689.56-24.69 691.24-24.18 692.57-23.48L692.57-23.48 692.02-18.85Q690.69-19.88 689.16-20.56 687.62-21.25 685.57-21.25L685.57-21.25Q683.67-21.25 682.54-20.51 681.42-19.78 681.42-18.28L681.42-18.28Q681.42-16.68 682.74-15.95 684.07-15.23 686.87-14.28L686.87-14.28Q688.14-13.85 689.37-13.26 690.59-12.68 691.61-11.85 692.62-11.03 693.22-9.8 693.82-8.58 693.82-6.88L693.82-6.88Q693.82-4.93 692.88-3.25 691.94-1.58 689.86-0.54 687.77 0.5 684.27 0.5ZM703.37 12.1L698.14 12.1 698.14-24.7 702.29-24.7 703.27-19.73 701.77-20.53Q703.37-22.65 705.54-23.91 707.72-25.18 710.87-25.18L710.87-25.18Q714.34-25.18 716.79-23.44 719.24-21.7 720.52-18.79 721.79-15.88 721.79-12.33L721.79-12.33Q721.79-8.8 720.55-5.89 719.32-2.98 716.89-1.24 714.47 0.5 710.87 0.5L710.87 0.5Q707.94 0.5 705.8-0.54 703.67-1.58 702.27-3.73L702.27-3.73 703.37-4.75 703.37 12.1ZM709.97-3.98L709.97-3.98Q713.02-3.98 714.73-6.23 716.44-8.47 716.44-12.33L716.44-12.33Q716.44-16.2 714.73-18.45 713.02-20.7 709.97-20.7L709.97-20.7Q707.89-20.7 706.35-19.73 704.82-18.75 703.95-16.89 703.09-15.03 703.09-12.33L703.09-12.33Q703.09-9.58 703.95-7.73 704.82-5.88 706.35-4.93 707.89-3.98 709.97-3.98ZM738.21 0.5L738.21 0.5Q733.79 0.5 730.81-1.29 727.84-3.08 726.33-6.04 724.81-9 724.81-12.53L724.81-12.53Q724.81-15.95 726.23-18.82 727.64-21.7 730.35-23.44 733.06-25.18 736.91-25.18L736.91-25.18Q740.19-25.18 742.59-23.85 744.99-22.53 746.28-20.15 747.56-17.78 747.56-14.6L747.56-14.6Q747.56-13.95 747.5-13.25 747.44-12.55 747.29-11.78L747.29-11.78 730.21-11.78Q730.54-8.85 731.76-7.14 732.99-5.43 734.81-4.7 736.64-3.98 738.76-3.98L738.76-3.98Q740.66-3.98 742.51-4.41 744.36-4.85 745.99-5.68L745.99-5.68 746.46-1.4Q745.04-0.73 742.96-0.11 740.89 0.5 738.21 0.5ZM730.51-15.35L730.51-15.35 742.21-15.35Q742.21-16.82 741.66-18.04 741.11-19.25 739.93-19.98 738.74-20.7 736.86-20.7L736.86-20.7Q734.11-20.7 732.6-19.25 731.09-17.8 730.51-15.35ZM757.39 0L751.99 0 751.99-24.7 756.59-24.7 756.96-21.25Q758.46-23.05 760.17-24.13 761.89-25.2 763.89-25.2L763.89-25.2Q764.49-25.2 765.01-25.08L765.01-25.08 764.56-19.65Q764.14-19.75 763.7-19.8 763.26-19.85 762.79-19.85L762.79-19.85Q760.99-19.85 759.5-19.04 758.01-18.23 757.39-17.2L757.39-17.2 757.39 0ZM773.31 0L768.08 0 768.08-24.7 773.31-24.7 773.31 0ZM773.31-29.5L768.08-29.5 768.08-35 773.31-35 773.31-29.5ZM791.83 0.5L787.61 0.5Q785.28 0.5 783.84-0.4 782.41-1.3 781.74-2.7 781.08-4.1 781.08-5.65L781.08-5.65 781.08-20.53 777.16-20.53 777.63-24.7 781.08-24.7 781.08-30.53 786.31-31.08 786.31-24.7 792.36-24.7 792.36-20.53 786.31-20.53 786.31-8.3Q786.31-6.15 786.56-5.19 786.81-4.23 787.78-3.98 788.76-3.73 790.88-3.73L790.88-3.73 792.28-3.73 791.83 0.5ZM803.7 12.1L798.2 12.1 803.8-1.33 793.53-24.7 799.33-24.7 806.45-7.4 813.18-24.7 818.98-24.7 803.7 12.1Z" opacity="1" transform="matrix(1,0,0,1,0,0)" fill="#755bb4" class="slogan-text-1" data-fill-palette-color="secondary" id="text-1"></path></svg></g></svg></g></svg></g></svg></g><g><svg viewBox="0 0 244.43135999999998 244.43135999999998" height="244.43135999999998" width="244.43135999999998"><g><svg viewBox="0 0 244.43135999999998 244.43135999999998" height="244.43135999999998" width="244.43135999999998"><g transform="matrix(1,0,0,1,64.60265593644992,68.67988059807433)"><svg viewBox="0 0 115.22604812710014 107.07159880385132" height="107.07159880385132" width="115.22604812710014"><g><svg xmlns="http://www.w3.org/2000/svg" xmlns:xlink="http://www.w3.org/1999/xlink" version="1.1" x="0" y="0" viewBox="0 2.299999713897705 65 60.40000534057617" enable-background="new 0 0 65 65" xml:space="preserve" height="107.07159880385132" width="115.22604812710014" class="icon-s-0" data-fill-palette-color="accent" id="s-0"><g fill="#755bb4" data-fill-palette-color="accent"><path d="M60.2 12.5H43.4v6.8h16.7V12.5zM58.7 17.7H44.9V14h13.8V17.7z" fill="#755bb4" data-fill-palette-color="accent"></path><rect x="44.9" y="30.5" width="4.5" height="1.5" fill="#755bb4" data-fill-palette-color="accent"></rect><rect x="55.7" y="33" width="1.5" height="1.5" fill="#755bb4" data-fill-palette-color="accent"></rect><rect x="53.8" y="30.5" width="5.4" height="1.5" fill="#755bb4" data-fill-palette-color="accent"></rect><rect x="55.7" y="28.1" width="1.5" height="1.5" fill="#755bb4" data-fill-palette-color="accent"></rect><polygon points="47.9,21.4 46.4,21.4 46.4,22.9 44.9,22.9 44.9,24.4 46.4,24.4 46.4,25.9 47.9,25.9 47.9,24.4 49.4,24.4 49.4,22.9    47.9,22.9  " fill="#755bb4" data-fill-palette-color="accent"></polygon><polygon points="55.4,25.8 56.5,24.7 57.5,25.8 58.6,24.7 57.5,23.7 58.6,22.6 57.5,21.6 56.5,22.6 55.4,21.6 54.4,22.6 55.4,23.7    54.4,24.7  " fill="#755bb4" data-fill-palette-color="accent"></polygon><path d="M24.2 45.9c0-0.9-0.4-1.7-1.1-2.3-0.7-0.6-1.5-0.9-2.5-0.9-0.6 0-1.1-0.2-1.5-0.5-0.4-0.3-0.6-0.7-0.6-1.2 0-0.4 0.2-0.8 0.6-1.2 0.8-0.7 2.2-0.7 3 0 0.4 0.3 0.6 0.7 0.6 1.2h1.5c0-0.9-0.4-1.7-1.1-2.3-0.5-0.4-1.1-0.7-1.7-0.8v-1.9h-1.5V38c-0.6 0.1-1.2 0.4-1.7 0.8-0.7 0.6-1.1 1.4-1.1 2.3 0 0.9 0.4 1.7 1.1 2.3 0.7 0.6 1.5 0.9 2.5 0.9 0.6 0 1.1 0.2 1.5 0.5 0.4 0.3 0.6 0.7 0.6 1.2 0 0.4-0.2 0.8-0.6 1.2-0.8 0.7-2.2 0.7-3 0-0.4-0.3-0.6-0.7-0.6-1.2h-1.5c0 0.9 0.4 1.7 1.1 2.3 0.5 0.4 1.1 0.7 1.7 0.8v1.9h1.5V49c0.6-0.1 1.2-0.4 1.7-0.8C23.8 47.6 24.2 46.8 24.2 45.9z" fill="#755bb4" data-fill-palette-color="accent"></path><path d="M65 54.8l0-0.7h-9.8V37.3h8V9.1h-8V8.7c0-3.5-2.8-6.3-6.3-6.4L7 2.3v0c-0.2 0-0.4 0-0.6 0C2.9 2.3 0 5.2 0 8.7v2.2h11.3l0 45.4c0 3.5 2.9 6.4 6.4 6.4 0 0 0 0 0 0l41.7 0c3.2 0 5.6-2.5 5.6-5.9C65 56.3 65 54.8 65 54.8zM61.7 10.6v25.3H42V10.6H61.7zM11.3 9.4H1.5V8.7c0-2.7 2.2-4.9 4.9-4.9s4.9 2.2 4.9 4.9V9.4zM17.7 61.2c-2.7 0-4.9-2.2-4.9-4.9l0-3.5 0-44.2c0-2-0.9-3.8-2.3-4.9l38.2 0c2.7 0 4.9 2.2 4.9 4.9v0.4H40.5v28.2h13.2v16.8H23.4l-1.1 0.2 0.2 0.8c0.1 0.4 0.2 0.9 0.2 1.3C22.6 59 20.4 61.2 17.7 61.2zM59.4 61.2H21.8c1.4-1.2 2.3-2.9 2.3-4.9 0-0.2 0-0.5-0.1-0.7h39.4c0 0.4 0 1 0 1.2C63.5 59.4 61.8 61.2 59.4 61.2z" fill="#755bb4" data-fill-palette-color="accent"></path><rect x="20.1" y="16" transform="matrix(-0.7071 0.7071 -0.7071 -0.7071 55.7354 10.4708)" width="11.1" height="1.5" fill="#755bb4" data-fill-palette-color="accent"></rect><path d="M28.5 17.5c-1.2 0-2.2 1-2.2 2.2 0 1.2 1 2.2 2.2 2.2 1.2 0 2.2-1 2.2-2.2C30.8 18.5 29.8 17.5 28.5 17.5zM28.5 20.5c-0.4 0-0.8-0.3-0.8-0.8 0-0.4 0.3-0.8 0.8-0.8 0.4 0 0.8 0.3 0.8 0.8C29.3 20.2 28.9 20.5 28.5 20.5z" fill="#755bb4" data-fill-palette-color="accent"></path><path d="M22.7 16.2c1.2 0 2.2-1 2.2-2.2 0-1.2-1-2.2-2.2-2.2-1.2 0-2.2 1-2.2 2.2C20.5 15.2 21.5 16.2 22.7 16.2zM22.7 13.2c0.4 0 0.8 0.3 0.8 0.8 0 0.4-0.3 0.8-0.8 0.8-0.4 0-0.8-0.3-0.8-0.8C21.9 13.5 22.3 13.2 22.7 13.2z" fill="#755bb4" data-fill-palette-color="accent"></path><path d="M25.6 26.3L25.6 26.3c5.2 0 9.5-4.2 9.5-9.4 0-5.2-4.2-9.5-9.5-9.5-5.2 0-9.5 4.2-9.5 9.4C16.1 22 20.3 26.3 25.6 26.3zM25.6 8.9c4.4 0 8 3.6 8 8 0 4.4-3.6 8-8 8v0.7l0-0.7c-4.4 0-8-3.6-8-8C17.6 12.4 21.2 8.9 25.6 8.9z" fill="#755bb4" data-fill-palette-color="accent"></path><polygon points="34.8,37.1 31.7,42 28.6,37.1 27.3,37.8 30.4,42.7 27.9,42.7 27.9,44.2 31,44.2 31,45.7 27.9,45.7 27.9,47.2    31,47.2 31,49.5 32.4,49.5 32.4,47.2 35.5,47.2 35.5,45.7 32.4,45.7 32.4,44.2 35.5,44.2 35.5,42.7 33,42.7 36.1,37.8  " fill="#755bb4" data-fill-palette-color="accent"></polygon></g></svg></g></svg></g><g><path d="M31.677 91.836v0c-1.208 2.537-2.869 3.303-4.981 2.297v0c-1.466-0.698-4.309-3.453-8.53-8.266v0c-4.926-5.632-8.156-9.021-9.688-10.167v0c-1.384 2.907-2.172 5.671-2.362 8.293-0.2 2.625 0.492 4.314 2.074 5.068v0c0.425 0.202 0.861 0.27 1.309 0.204 0.444-0.06 0.788-0.172 1.032-0.336v0c0.497-0.315 1.023-0.688 1.576-1.12v0c0.414-0.218 0.594-0.201 0.541 0.054v0c-0.041 0.086-0.1 0.179-0.178 0.278v0c-0.45 0.579-1.195 1.089-2.236 1.531-1.041 0.441-2.005 0.466-2.891 0.073v0c-0.336-0.024-0.615-0.089-0.837-0.194v0c-1.355-0.645-2.2-1.814-2.534-3.507-0.332-1.699-0.261-3.396 0.213-5.089 0.483-1.697 0.952-3.022 1.407-3.977 0.458-0.961 0.826-1.703 1.106-2.228v0c-0.212-0.063-0.464-0.081-0.757-0.054-0.289 0.036-0.404-0.12-0.343-0.469v0c0.015-0.031 0.035-0.074 0.062-0.129v0c0.135-0.283 0.475-0.45 1.02-0.501v0l0.693 0.069c0.993-1.499 1.982-2.671 2.966-3.517v0c0.372-0.337 0.823-0.538 1.353-0.602 0.533-0.056 0.683 0.121 0.449 0.531v0c-0.12 0.253-0.462 0.66-1.024 1.223-0.563 0.563-1.241 1.607-2.036 3.134v0c2.784 1.5 5.448 3.72 7.991 6.661v0c5.032 5.713 8.662 9.1 10.891 10.161v0c1.435 0.683 2.427 0.449 2.976-0.702v0c0.672-1.41 0.641-3.884-0.093-7.422v0c-0.821-4.161-2.826-8.75-6.013-13.766v0c-0.418-0.645-1.217-1.871-2.396-3.679v0c-2.288-3.477-3.936-6.268-4.944-8.372v0c-0.636-1.346-0.971-2.672-1.005-3.981-0.031-1.314 0.094-2.267 0.375-2.859 0.284-0.597 0.577-1.013 0.877-1.248 0.301-0.235 0.516-0.321 0.645-0.259 0.123 0.059 0.151 0.159 0.084 0.3v0l-0.257 0.444c-0.443 0.93-0.039 2.732 1.212 5.405v0c0.789 1.69 2.012 4.097 3.667 7.221 1.662 3.126 2.842 5.377 3.54 6.751v0c2.82 5.771 4.628 10.454 5.424 14.052 0.795 3.597 0.67 6.495-0.378 8.694z" fill="#755bb4" data-fill-palette-color="accent"></path><path d="M28.498 59.418v0c0.439-0.642 0.911-0.885 1.416-0.73v0c0.265 0.107 0.469 0.292 0.612 0.556 0.139 0.268 0.255 0.472 0.351 0.611 0.095 0.139 0.169 0.248 0.223 0.326v0c0.17 0.307 0.329 0.601 0.474 0.883v0c1.929 3.486 3.269 5.539 4.018 6.159v0c0.217 0.19 0.506 0.408 0.866 0.655 0.36 0.247 0.727 0.345 1.101 0.294v0c0.658-0.079 1.035-0.577 1.133-1.493 0.098-0.916 0.017-2.344-0.243-4.283-0.266-1.943-0.658-3.641-1.176-5.094v0c-0.06-0.19-0.012-0.327 0.144-0.41 0.151-0.087 0.26-0.108 0.328-0.061 0.062 0.042 0.115 0.116 0.159 0.22v0c0.427 0.862 0.838 2.169 1.235 3.92v0c0.65 2.867 0.801 4.995 0.453 6.386v0c-0.208 0.8-0.463 1.419-0.763 1.858v0c-0.705 1.03-1.663 1.379-2.873 1.047v0c-0.215-0.073-0.452-0.198-0.711-0.375v0c-0.901-0.616-1.983-1.964-3.246-4.044v0c0.193 0.322 0.493 1.267 0.899 2.835v0c0.101 0.408-0.022 0.588-0.37 0.54v0c-0.07-0.007-0.15-0.041-0.24-0.102-0.09-0.062-0.163-0.19-0.219-0.386v0c-0.713-2.34-1.364-4.24-1.952-5.7v0c-0.164-0.038-0.311-0.18-0.44-0.425v0c-1.096-1.502-1.551-2.475-1.364-2.917v0c0.054-0.079 0.116-0.169 0.185-0.27zM25.447 52.842v0l1.028 1.162c0.231 0.158 0.492 0.58 0.782 1.266 0.281 0.688 0.36 1.123 0.237 1.303v0c-0.759 1.109-1.409 1.479-1.949 1.109v0c-0.101-0.069-0.198-0.949-0.289-2.64v0l-0.056-1.006c-0.079-0.658-0.084-1.037-0.015-1.138 0.073-0.107 0.16-0.126 0.262-0.056z" fill="#755bb4" data-fill-palette-color="accent"></path><path d="M44.386 45.618v0c-2.031 1.125-3.44 2.099-4.228 2.923-0.788 0.823-1.195 1.939-1.222 3.348-0.022 1.404 0.105 2.82 0.383 4.247v0c0.08 0.775-0.001 1.175-0.242 1.2-0.245 0.029-0.413-0.155-0.504-0.554v0l-0.955-5.247c-0.196-1.009-0.159-1.994 0.109-2.956v0c0.08-0.311 0.205-0.555 0.375-0.731 0.175-0.182 0.363-0.37 0.567-0.563 0.213-0.193 0.393-0.356 0.539-0.489 0.151-0.138 0.515-0.385 1.091-0.741 0.576-0.355 0.921-0.568 1.036-0.638v0l3.096-2.021c0.014-0.685 0.14-1.311 0.379-1.876 0.243-0.57 0.473-0.968 0.69-1.195 0.217-0.227 0.503-0.279 0.858-0.156v0c0.561 0.499 0.727 1.253 0.498 2.262-0.234 1.013-0.485 1.661-0.753 1.941-0.269 0.281-0.47 0.466-0.603 0.556v0c-0.28 3.499-0.459 6.355-0.536 8.566-0.087 2.212-0.139 3.441-0.158 3.687v0l1.479-0.539c2.397-0.689 3.973-1.428 4.727-2.217v0c0.495-0.517 0.865-1.269 1.109-2.253 0.244-0.975 0.38-2.573 0.409-4.793 0.029-2.22-0.096-4.068-0.375-5.542v0c-0.049-0.264 0.026-0.442 0.227-0.533 0.196-0.096 0.316-0.123 0.36-0.081v0c0.315 0.302 0.52 1.829 0.614 4.582 0.094 2.743 0.064 4.693-0.088 5.85v0c-0.242 1.93-0.871 3.425-1.885 4.485-1.014 1.06-2.632 1.867-4.854 2.422v0c-0.815 0.221-1.452 0.456-1.909 0.708v0c-0.203 1.751-0.552 2.885-1.047 3.402v0c-0.132 0.138-0.277 0.24-0.435 0.306v0c-0.309 0.007-0.598-0.12-0.87-0.379-0.266-0.255-0.439-0.68-0.52-1.276v0c-0.176-0.99 0.137-1.904 0.939-2.742v0c0.387-0.404 0.885-0.767 1.496-1.089v0c0.086-1.136 0.115-1.778 0.088-1.927v0c0.109-2.058 0.148-5.373 0.115-9.947z" fill="#755bb4" data-fill-palette-color="accent"></path><path d="M93.91 30.127v0c-0.894 0.373-1.706 0.251-2.438-0.367-0.734-0.625-1.358-1.551-1.871-2.778-0.513-1.227-0.957-3.016-1.332-5.365v0c-1.041 0.339-2.841 0.854-5.398 1.546v0c-1.931 6.632-3.82 11.47-5.669 14.511v0c-1.562 2.649-3.57 4.486-6.025 5.512v0c-1.555 0.65-3.049 0.816-4.483 0.498-1.438-0.309-2.476-1.228-3.115-2.757v0c-0.121-0.29-0.16-0.587-0.118-0.893 0.042-0.306 0.161-0.429 0.355-0.37 0.192 0.053 0.403 0.353 0.631 0.9v0c0.41 0.982 1.099 1.559 2.066 1.732 0.97 0.164 2.003 0.017 3.098-0.441v0c2.36-0.986 4.364-2.729 6.011-5.228 1.653-2.502 3.514-6.825 5.582-12.968v0c-4.452 1.254-7.357 2.165-8.717 2.733v0c-3.657 1.528-5.42 3.669-5.289 6.424v0c0.018 0.362 0.085 0.682 0.201 0.959 0.113 0.271 0.271 0.489 0.474 0.656 0.212 0.17 0.306 0.334 0.283 0.491-0.014 0.161-0.112 0.272-0.293 0.334-0.178 0.052-0.359 0.017-0.543-0.106v0c-0.55-0.413-0.934-0.881-1.153-1.404v0c-0.747-1.788-0.974-3.242-0.68-4.362 0.293-1.121 0.827-1.976 1.601-2.565v0c0.918-0.723 2.066-1.373 3.444-1.949 1.385-0.579 5.104-1.489 11.156-2.733v0c0.808-2.437 1.969-6.301 3.485-11.592 1.515-5.291 2.261-7.965 2.237-8.021v0l0.038-0.016c0.021-0.038 0.076-0.109 0.166-0.213v0c0.521-0.698 1.185-1.216 1.99-1.553v0c0.29-0.121 0.495-0.037 0.616 0.253v0c0.013 0.031 0.013 0.076 0 0.133-0.007 0.055-0.011 0.123-0.014 0.206 0.004 0.08 0.003 0.158-0.002 0.233v0c-0.855 5.739-0.846 11.794 0.027 18.165v0l-0.006 0.357 1.106-0.406c0.237-0.07 0.651-0.228 1.243-0.475 0.592-0.247 1.161-0.644 1.709-1.191 0.551-0.556 0.853-1.029 0.904-1.42 0.057-0.394 0.194-0.536 0.409-0.426 0.218 0.116 0.313 0.298 0.284 0.546v0c-0.082 0.707-0.471 1.358-1.169 1.953v0c-0.571 0.579-1.197 1.01-1.877 1.294-0.673 0.281-1.111 0.464-1.312 0.548v0l-1.186 0.452c0.499 2.734 1.059 4.843 1.679 6.329 0.621 1.485 1.334 2.06 2.14 1.723v0c0.78-0.326 1.733-1.452 2.858-3.379 1.125-1.926 1.999-4.169 2.622-6.729v0c0.038-0.156 0.141-0.237 0.309-0.24 0.171 0.002 0.274 0.045 0.308 0.126 0.037 0.088 0.061 0.207 0.072 0.358 0.009 0.144-0.079 0.562-0.264 1.253v0c-0.541 2.119-1.389 4.266-2.543 6.441v0c-0.844 1.536-2.047 2.63-3.607 3.281zM87.203 7.39v0c0.008-0.07 0.013-0.164 0.015-0.283-0.004-0.116-0.004-0.213 0.001-0.289v0c-1.538 6.439-2.846 11.458-3.921 15.057v0l4.845-1.17c-0.5-3.48-0.813-7.918-0.94-13.315z" fill="#755bb4" data-fill-palette-color="accent"></path><path d="M111.279 14.322v0l0.118-0.953c-0.078-0.623-0.35-0.905-0.817-0.847v0c-1.273 0.159-2.885 1.367-4.838 3.625-1.952 2.258-3.097 4.432-3.434 6.523v0c-0.09 0.547-0.109 1.031-0.057 1.451 0.052 0.42 0.187 0.757 0.405 1.011v0c0.442 0.509 1.052 0.714 1.83 0.617 0.772-0.096 1.594-0.309 2.467-0.637v0c1.914-0.802 3.466-1.807 4.656-3.015 1.191-1.2 2.398-2.822 3.621-4.865v0c0.102-0.171 0.242-0.236 0.419-0.196 0.184 0.046 0.283 0.123 0.297 0.231 0.014 0.108-0.014 0.277-0.081 0.505v0c-1.238 2.196-2.591 4.025-4.059 5.487-1.475 1.456-3.259 2.503-5.352 3.142v0c-0.611 0.172-1.177 0.291-1.698 0.356v0c-1.523 0.19-2.727-0.038-3.612-0.684-0.878-0.647-1.373-1.42-1.485-2.32-0.111-0.894-0.016-1.895 0.285-3.005v0c0.551-1.863 1.983-3.884 4.296-6.063 2.306-2.178 4.204-3.36 5.693-3.546v0c0.372-0.046 0.734-0.043 1.084 0.009v0c0.912 0.202 1.411 0.645 1.496 1.329v0c0.057 0.46-0.05 1.006-0.322 1.639-0.265 0.631-0.493 0.873-0.683 0.724-0.19-0.148-0.267-0.321-0.229-0.518z" fill="#755bb4" data-fill-palette-color="accent"></path><path d="M128.247 14.373v0l0.267-0.923c0.021-0.627-0.203-0.949-0.674-0.965v0c-1.282-0.043-3.064 0.896-5.348 2.819-2.283 1.922-3.756 3.889-4.418 5.9v0c-0.175 0.526-0.269 1.001-0.284 1.424-0.014 0.423 0.066 0.777 0.24 1.063v0c0.356 0.572 0.926 0.871 1.71 0.897 0.777 0.026 1.623-0.054 2.538-0.241v0c2.017-0.491 3.707-1.239 5.072-2.244 1.365-0.998 2.812-2.41 4.341-4.235v0c0.128-0.153 0.276-0.195 0.445-0.128 0.175 0.074 0.261 0.166 0.257 0.275-0.004 0.109-0.057 0.271-0.16 0.486v0c-1.569 1.974-3.192 3.567-4.872 4.779-1.686 1.206-3.612 1.959-5.779 2.261v0c-0.63 0.074-1.208 0.102-1.733 0.085v0c-1.534-0.052-2.687-0.467-3.46-1.244-0.765-0.777-1.133-1.619-1.102-2.525 0.031-0.9 0.282-1.874 0.755-2.923v0c0.838-1.753 2.57-3.523 5.197-5.311 2.62-1.788 4.68-2.657 6.18-2.606v0c0.375 0.013 0.731 0.073 1.069 0.18v0c0.869 0.343 1.292 0.859 1.268 1.548v0c-0.016 0.464-0.207 0.986-0.575 1.567-0.361 0.582-0.624 0.784-0.789 0.608-0.165-0.176-0.213-0.359-0.145-0.547z" fill="#755bb4" data-fill-palette-color="accent"></path><path d="M141.942 21.809v0c0.781-1.02 1.232-1.838 1.355-2.453 0.121-0.609 0.147-1.104 0.077-1.487-0.07-0.383 0.05-0.668 0.359-0.857 0.31-0.196 0.66-0.223 1.049-0.083v0c0.578 0.275 0.745 1.025 0.502 2.249-0.244 1.224-1.284 2.69-3.12 4.397v0c-0.132 0.836 0.214 1.336 1.037 1.5 0.83 0.165 2.265-0.474 4.305-1.917v0c0.979-0.758 1.597-1.257 1.853-1.498 0.255-0.234 0.452-0.296 0.59-0.185 0.133 0.103 0.193 0.184 0.18 0.245v0c-0.061 0.308-0.769 0.995-2.121 2.06v0c-2.181 1.798-3.943 2.563-5.288 2.295v0c-0.89-0.177-1.443-0.684-1.659-1.52v0c-0.737 0.521-1.451 0.998-2.142 1.43v0c-1.399 0.772-2.834 1.011-4.306 0.718v0c-0.83-0.165-1.479-0.5-1.949-1.005v0c-0.942-0.856-1.248-2.113-0.918-3.772v0c0.36-1.806 1.338-3.521 2.935-5.143v0c0.922-0.964 1.941-1.766 3.056-2.406v0c1.768-1.018 3.324-1.393 4.669-1.125v0c0.341 0.068 0.653 0.179 0.935 0.333v0c0.862 0.492 1.207 1.166 1.037 2.022v0c-0.14 0.702-0.394 1.017-0.762 0.944v0c-0.142-0.091-0.173-0.334-0.095-0.729v0c0.111-0.555-0.142-0.894-0.757-1.017v0c-1.07-0.213-2.644 0.492-4.72 2.117-2.077 1.624-3.481 3.4-4.213 5.326v0c-0.128 0.329-0.233 0.698-0.314 1.106-0.083 0.415-0.04 0.917 0.127 1.507 0.168 0.59 0.626 0.959 1.376 1.109 0.756 0.151 1.642-0.021 2.658-0.514 1.024-0.498 1.992-1.199 2.903-2.103v0l-0.077-0.297c-0.028-0.52 0.111-0.906 0.419-1.158 0.309-0.258 0.649-0.288 1.019-0.089z" fill="#755bb4" data-fill-palette-color="accent"></path><path d="M170.533 30.773c-0.755 0.596-1.948 1.27-3.578 2.022-1.622 0.748-3.018 1.271-4.19 1.57v0c-1.497 0.356-2.927 0.254-4.289-0.308v0c-0.259-0.107-0.545-0.369-0.86-0.786-0.321-0.42-0.459-0.89-0.415-1.411 0.051-0.518 0.166-0.994 0.346-1.429v0c0.619-1.501 1.52-2.871 2.703-4.11v0c-0.114 0.027-0.765 0.478-1.953 1.353-1.19 0.882-2.514 1.631-3.971 2.248-1.448 0.613-2.692 0.705-3.733 0.275v0c-0.492-0.203-1.003-0.565-1.533-1.086v0c-0.941-0.993-1.125-2.183-0.553-3.571v0c0.702-1.703 2.013-3.217 3.933-4.543 1.911-1.322 3.047-1.975 3.409-1.959v0c0.482 0.066 0.918 0.18 1.309 0.341 0.391 0.161 0.756 0.404 1.094 0.728 0.339 0.324 0.173 0.566-0.498 0.725v0c-2.744 1.001-4.995 2.441-6.752 4.321v0c-0.678 0.731-1.139 1.393-1.383 1.986-0.244 0.593-0.247 1.038-0.009 1.336 0.23 0.301 0.487 0.511 0.771 0.627v0c0.694 0.286 1.84 0.191 3.438-0.286 1.596-0.471 4.082-1.803 7.459-3.996v0c0.467-0.309 1.319-0.943 2.556-1.902 1.245-0.962 1.984-1.528 2.216-1.698v0c0.467 0.192 0.965 0.523 1.495 0.993 0.536 0.472 0.631 0.84 0.286 1.103v0c-2.342 1.742-4.02 3.046-5.033 3.912-1.02 0.863-1.934 1.988-2.742 3.374v0c-0.134 0.254-0.285 0.583-0.452 0.987-0.166 0.404-0.189 0.781-0.069 1.134v0c0.245 0.64 0.835 0.909 1.77 0.807 0.941-0.099 2.322-0.477 4.143-1.135 1.825-0.649 3.379-1.385 4.662-2.206v0c0.18-0.096 0.333-0.073 0.459 0.067 0.129 0.134 0.178 0.239 0.147 0.316-0.029 0.069-0.089 0.136-0.183 0.201z" fill="#755bb4" data-fill-palette-color="accent"></path><path d="M185.059 33.034v0c0.594 0.412 0.672 0.934 0.233 1.568-0.435 0.628-1.332 1.288-2.693 1.981-1.354 0.697-2.41 1.293-3.168 1.789v0c-1.308 0.845-2.206 1.621-2.695 2.327-0.489 0.707-0.713 1.245-0.671 1.615v0c0.103 0.677 0.617 1.062 1.541 1.154 0.924 0.092 2.354 0.017 4.29-0.227 1.932-0.238 3.613-0.621 5.041-1.15v0c0.196-0.055 0.341-0.001 0.434 0.164 0.097 0.159 0.123 0.272 0.077 0.339-0.043 0.062-0.117 0.114-0.222 0.158v0c-0.865 0.422-2.171 0.828-3.919 1.218-1.75 0.381-3.314 0.579-4.693 0.595-1.38 0.015-2.518-0.288-3.416-0.91v0c-0.855-0.634-1.334-1.26-1.436-1.879-0.099-0.624 0.046-1.217 0.434-1.778 0.392-0.566 0.822-1.078 1.288-1.535 0.472-0.453 1.089-0.93 1.851-1.432v0c1.225-0.786 2.223-1.364 2.994-1.734 0.775-0.376 1.23-0.662 1.366-0.858 0.132-0.191 0.094-0.358-0.113-0.502v0c-0.409-0.284-1.539-0.324-3.389-0.12v0c-1.309 0.189-3.457 0.779-6.444 1.772-2.987 0.993-4.628 1.482-4.925 1.467v0c-1.244-0.181-1.981-0.351-2.211-0.51-0.23-0.159-0.318-0.278-0.263-0.357 0.051-0.073 0.151-0.165 0.303-0.276 0.148-0.105 0.881-0.63 2.2-1.575 1.328-0.947 2.774-1.991 4.336-3.133 1.564-1.132 2.512-1.811 2.843-2.038 0.331-0.227 0.59-0.438 0.775-0.633 0.191-0.191 0.366-0.348 0.525-0.471 0.161-0.113 0.38-0.218 0.656-0.317 0.272-0.094 0.527-0.066 0.765 0.082 0.238 0.148 0.517 0.379 0.839 0.693 0.316 0.31 0.385 0.594 0.206 0.852v0c-0.124 0.179-0.539 0.473-1.245 0.881-0.7 0.411-2.945 1.927-6.734 4.545v0c1.71-0.492 3.782-0.985 6.217-1.481 2.433-0.505 4.403-0.804 5.911-0.896v0c1.457-0.019 2.494 0.185 3.112 0.612z" fill="#755bb4" data-fill-palette-color="accent"></path><path d="M196.982 43.174l0.471 0.395c1.888 1.51 3.017 2.443 3.385 2.798 0.374 0.359 0.509 0.593 0.405 0.701v0c-0.132 0.138-0.535 0.025-1.208-0.338-0.663-0.363-2.13-1.416-4.399-3.16v0c-0.307 0.093-0.669 0.199-1.086 0.319v0c-0.859 0.215-1.353 0.37-1.481 0.464v0c-3.756 1.33-6.001 2.314-6.736 2.951v0c-0.223 0.183-0.486 0.432-0.788 0.747-0.302 0.315-0.459 0.661-0.471 1.037v0c-0.03 0.662 0.399 1.116 1.287 1.364 0.888 0.247 2.309 0.402 4.264 0.463 1.96 0.057 3.699-0.051 5.219-0.322v0c0.197-0.028 0.332 0.058 0.403 0.259v0c0.183 0.479-1.26 0.805-4.33 0.978v0c-2.935 0.17-5.059-0.03-6.373-0.602v0c-0.755-0.337-1.324-0.69-1.708-1.058v0c-0.9-0.865-1.087-1.867-0.56-3.007v0c0.107-0.2 0.269-0.413 0.487-0.639v0c0.756-0.787 2.263-1.633 4.522-2.538v0c-0.349 0.137-1.331 0.278-2.944 0.422v0c-0.419 0.033-0.577-0.119-0.472-0.454v0c0.018-0.068 0.065-0.141 0.14-0.22 0.076-0.079 0.214-0.13 0.416-0.153v0c2.425-0.319 4.406-0.649 5.944-0.989v0c0.019-0.02 0.721-0.253 2.106-0.701v0c-0.269-0.173-0.521-0.373-0.758-0.599-0.236-0.227-0.34-0.468-0.311-0.725 0.029-0.256 0.186-0.44 0.474-0.552v0c0.502-0.208 1.291 0.162 2.367 1.11v0c0.067-0.021 0.135 0.002 0.204 0.068v0l4.709-1.521c0.263-0.097 0.544-0.187 0.841-0.27 0.297-0.083 0.52-0.148 0.669-0.195 0.158-0.047 0.324-0.096 0.497-0.147 0.178-0.047 0.31-0.071 0.396-0.074 0.092 0.003 0.181 0.004 0.268 0.002v0c0.221-0.053 0.55 0.131 0.988 0.552 0.443 0.425 0.622 0.839 0.539 1.241v0c-0.021 0.15-0.133 0.331-0.336 0.542-0.208 0.216-0.516 0.38-0.924 0.489-0.403 0.105-0.748 0.129-1.033 0.072-0.291-0.062-0.534-0.059-0.731 0.007v0z" fill="#755bb4" data-fill-palette-color="accent"></path><path d="M204.21 51.201v0c0.495 0.6 0.597 1.121 0.308 1.564v0c-0.177 0.225-0.411 0.37-0.704 0.433-0.296 0.059-0.525 0.114-0.684 0.167-0.16 0.052-0.285 0.094-0.376 0.124v0c-0.342 0.079-0.669 0.149-0.979 0.211v0c-3.885 0.886-6.229 1.602-7.033 2.15v0c-0.243 0.156-0.533 0.373-0.87 0.65-0.337 0.278-0.533 0.603-0.588 0.975v0c-0.107 0.654 0.267 1.155 1.12 1.504 0.853 0.349 2.247 0.667 4.182 0.955 1.94 0.284 3.68 0.379 5.221 0.285v0c0.199-0.005 0.317 0.079 0.353 0.253 0.042 0.169 0.031 0.279-0.032 0.331-0.058 0.048-0.143 0.078-0.256 0.091v0c-0.947 0.17-2.317 0.203-4.109 0.099v0c-2.935-0.171-5.021-0.617-6.26-1.338v0c-0.71-0.422-1.235-0.839-1.573-1.249v0c-0.794-0.963-0.863-1.98-0.208-3.051v0c0.129-0.186 0.315-0.379 0.558-0.579v0c0.842-0.694 2.438-1.359 4.786-1.995v0c-0.363 0.096-1.354 0.122-2.973 0.077v0c-0.42-0.016-0.559-0.185-0.417-0.506v0c0.026-0.065 0.081-0.133 0.165-0.202 0.084-0.069 0.228-0.104 0.432-0.104v0c2.446-0.036 4.452-0.133 6.017-0.292v0c0.082-0.147 0.259-0.249 0.531-0.305v0c1.748-0.636 2.808-0.803 3.181-0.5v0c0.061 0.074 0.13 0.158 0.208 0.252zM211.375 50.096v0l-1.402 0.665c-0.216 0.178-0.694 0.311-1.434 0.4-0.739 0.079-1.178 0.034-1.317-0.135v0c-0.855-1.037-1.029-1.764-0.524-2.18v0c0.095-0.078 0.967 0.074 2.616 0.456v0l0.982 0.225c0.654 0.107 1.019 0.207 1.097 0.302 0.082 0.1 0.076 0.189-0.018 0.267z" fill="#755bb4" data-fill-palette-color="accent"></path><path d="M216.356 69.243v0c0.363 0.625 0.212 1.131-0.455 1.519-0.661 0.384-1.754 0.601-3.279 0.65-1.522 0.056-2.731 0.147-3.628 0.274v0c-1.543 0.21-2.686 0.531-3.429 0.963-0.743 0.432-1.174 0.824-1.292 1.176v0c-0.194 0.657 0.107 1.224 0.904 1.7 0.797 0.476 2.124 1.014 3.981 1.616 1.851 0.605 3.535 0.972 5.053 1.1v0c0.201 0.033 0.309 0.144 0.323 0.332 0.021 0.185-0.004 0.298-0.075 0.34-0.065 0.038-0.154 0.054-0.267 0.049v0c-0.962 0.015-2.317-0.172-4.066-0.561-1.746-0.398-3.247-0.883-4.502-1.455-1.256-0.572-2.157-1.33-2.706-2.274v0c-0.505-0.937-0.673-1.708-0.502-2.312 0.176-0.607 0.559-1.082 1.148-1.424 0.596-0.346 1.202-0.627 1.818-0.844 0.62-0.21 1.381-0.38 2.283-0.51v0c1.443-0.191 2.592-0.291 3.448-0.299 0.861-0.011 1.395-0.077 1.602-0.196 0.201-0.117 0.237-0.284 0.11-0.503v0c-0.25-0.431-1.256-0.947-3.018-1.548v0c-1.265-0.385-3.461-0.762-6.586-1.132-3.126-0.369-4.82-0.624-5.082-0.763v0c-1.049-0.692-1.644-1.159-1.785-1.401-0.141-0.242-0.169-0.387-0.086-0.434 0.077-0.045 0.207-0.085 0.391-0.121 0.178-0.033 1.065-0.197 2.66-0.493 1.605-0.293 3.357-0.625 5.256-0.995 1.897-0.361 3.044-0.573 3.44-0.637 0.396-0.065 0.72-0.146 0.971-0.245 0.254-0.092 0.479-0.16 0.675-0.202 0.194-0.034 0.436-0.037 0.728-0.009 0.286 0.031 0.505 0.164 0.658 0.398 0.152 0.235 0.307 0.563 0.465 0.985 0.154 0.415 0.096 0.702-0.175 0.859v0c-0.189 0.11-0.689 0.199-1.501 0.268-0.808 0.075-3.484 0.494-8.027 1.256v0c1.757 0.281 3.843 0.714 6.257 1.299 2.417 0.576 4.328 1.142 5.733 1.699v0c1.328 0.601 2.18 1.226 2.557 1.875z" fill="#755bb4" data-fill-palette-color="accent"></path><path d="M190.491 85.5v0c-0.078-0.24-0.129-0.553-0.154-0.94v0c-0.109-1.643 0.44-2.659 1.648-3.05 1.201-0.389 2.963-0.095 5.286 0.88 2.315 0.971 5.95 3.43 10.906 7.375v0c5.061 0.728 9.005 1.093 11.83 1.096v0c-2.556-1.008-4.336-1.744-5.339-2.208v0c-3.838-1.711-6.022-3.385-6.552-5.02v0c-0.155-0.48-0.182-1.038-0.079-1.674 0.107-0.644 0.357-1.245 0.75-1.802 0.395-0.551 0.891-0.923 1.488-1.117v0c1.571-0.508 3.695 0.019 6.374 1.583v0c1.61 0.92 3.061 1.959 4.355 3.118 1.293 1.159 2.178 2.12 2.654 2.883 0.479 0.77 0.843 1.541 1.093 2.314 0.25 0.772 0.263 1.521 0.039 2.246-0.222 0.732-0.541 1.165-0.956 1.299v0c-0.24 0.078-0.354-0.018-0.34-0.288v0c0.46-0.507 0.509-1.319 0.147-2.435-0.361-1.116-1.134-2.261-2.317-3.434-1.185-1.179-2.46-2.172-3.825-2.978-1.359-0.808-2.798-1.399-4.317-1.775-1.515-0.384-2.572-0.48-3.169-0.286v0c-1.038 0.336-1.461 0.803-1.267 1.4v0c0.269 0.831 1.364 1.889 3.286 3.173v0c2.82 1.912 6.038 3.58 9.654 5.006v0c0.689 0.2 0.932 1.007 0.73 2.42v0c-0.08 0.549-0.226 0.808-0.437 0.776v0c-0.987-0.103-2.708-0.324-5.162-0.663-2.461-0.336-4.305-0.585-5.533-0.747v0c0.571 0.568 1.848 1.445 3.831 2.632 1.974 1.182 3.89 2.161 5.747 2.936v0c0.985 0.405 1.211 0.694 0.679 0.867v0c-0.746 0.242-3.287-0.907-7.623-3.448v0c-2.507-1.454-4.137-2.536-4.89-3.246v0c-6.016-0.842-9.835-1.476-11.458-1.904v0c-4.018-1.159-6.377-2.822-7.079-4.989zM206.209 89.467v0c-3.827-2.697-6.774-4.568-8.841-5.613-2.058-1.04-3.771-1.339-5.14-0.896v0c-0.415 0.134-0.667 0.366-0.754 0.696-0.096 0.325-0.095 0.637 0.002 0.935 0.095 0.292 0.457 0.648 1.088 1.068 0.631 0.42 1.225 0.761 1.783 1.025 0.559 0.264 1.074 0.484 1.548 0.66 0.467 0.179 1.049 0.36 1.746 0.543 0.697 0.183 1.245 0.325 1.643 0.425 0.392 0.103 0.999 0.229 1.822 0.378 0.814 0.145 1.369 0.242 1.664 0.29 0.297 0.054 0.892 0.141 1.784 0.261 0.894 0.126 1.446 0.202 1.655 0.228z" fill="#755bb4" data-fill-palette-color="accent"></path><path d="M5.557 164.281v0c-1.025-2.277-0.589-3.842 1.308-4.696v0c1.319-0.594 4.819-0.936 10.502-1.026v0c6.648-0.106 10.799-0.348 12.454-0.726v0c-1.174-2.606-2.593-4.728-4.257-6.365-1.668-1.643-3.21-2.145-4.629-1.507v0c-0.379 0.171-0.675 0.428-0.887 0.771-0.215 0.336-0.339 0.635-0.371 0.896v0c-0.073 0.519-0.12 1.087-0.142 1.702v0c-0.093 0.408-0.209 0.524-0.349 0.348v0c-0.036-0.081-0.065-0.177-0.084-0.287v0c-0.139-0.641-0.056-1.437 0.248-2.39 0.301-0.959 0.838-1.627 1.611-2.005v0c0.207-0.221 0.411-0.376 0.609-0.465v0c1.213-0.546 2.493-0.445 3.84 0.302 1.343 0.757 2.451 1.78 3.324 3.071 0.869 1.299 1.499 2.381 1.888 3.246 0.387 0.858 0.675 1.533 0.866 2.022v0c0.169-0.106 0.325-0.266 0.468-0.48 0.146-0.223 0.32-0.211 0.521 0.035v0c0.011 0.025 0.028 0.062 0.05 0.112v0c0.115 0.255 0.034 0.583-0.241 0.984v0l-0.448 0.426c0.445 1.535 0.669 2.882 0.674 4.039v0c0.022 0.447-0.101 0.865-0.367 1.254-0.263 0.395-0.468 0.398-0.614 0.007v0c-0.104-0.23-0.182-0.696-0.236-1.397-0.063-0.705-0.383-1.765-0.961-3.181v0c-2.612 1.027-5.647 1.555-9.105 1.586v0c-6.759 0.126-11.14 0.639-13.142 1.542v0c-1.288 0.58-1.697 1.389-1.23 2.427v0c0.569 1.263 2.263 2.658 5.083 4.186v0c3.29 1.84 7.547 3.121 12.773 3.844v0c0.683 0.089 1.976 0.251 3.877 0.487v0c3.673 0.448 6.511 0.936 8.514 1.463v0c1.275 0.339 2.369 0.875 3.283 1.608 0.907 0.736 1.48 1.368 1.718 1.897 0.241 0.535 0.354 0.97 0.341 1.305-0.017 0.344-0.082 0.542-0.193 0.592-0.112 0.05-0.196 0.013-0.252-0.111v0l-0.152-0.437c-0.375-0.833-1.828-1.593-4.359-2.279v0c-1.597-0.44-3.935-0.996-7.013-1.667-3.069-0.668-5.27-1.162-6.603-1.482v0c-5.53-1.4-9.744-2.865-12.641-4.396-2.894-1.525-4.786-3.276-5.676-5.255z" fill="#755bb4" data-fill-palette-color="accent"></path><path d="M29.738 182.85v0c0.384 0.581 0.428 1.05 0.133 1.409v0c-0.177 0.19-0.398 0.295-0.663 0.315-0.267 0.029-0.472 0.059-0.616 0.088-0.144 0.03-0.26 0.058-0.349 0.084v0c-0.307 0.031-0.603 0.059-0.889 0.084v0c-3.513 0.425-5.651 0.84-6.413 1.245v0c-0.226 0.116-0.501 0.282-0.825 0.496-0.324 0.214-0.529 0.48-0.613 0.798v0c-0.156 0.569 0.128 1.048 0.851 1.437 0.723 0.389 1.927 0.8 3.61 1.232 1.678 0.436 3.203 0.684 4.575 0.742v0c0.183 0.018 0.281 0.104 0.294 0.26 0.018 0.151-0.001 0.246-0.058 0.283-0.057 0.038-0.135 0.056-0.233 0.056v0c-0.855 0.067-2.069-0.031-3.64-0.293v0c-2.577-0.423-4.38-1.01-5.407-1.761v0c-0.594-0.441-1.021-0.858-1.281-1.251v0c-0.613-0.928-0.578-1.834 0.105-2.719v0c0.135-0.155 0.316-0.307 0.544-0.457v0c0.814-0.538 2.289-0.977 4.427-1.319v0c-0.335 0.05-1.215-0.019-2.639-0.207v0c-0.372-0.056-0.48-0.219-0.321-0.486v0c0.03-0.053 0.086-0.106 0.165-0.158 0.085-0.056 0.215-0.077 0.389-0.061v0c2.16 0.2 3.941 0.303 5.343 0.308v0c0.089-0.125 0.257-0.199 0.503-0.222v0c1.602-0.396 2.552-0.444 2.85-0.142v0c0.045 0.068 0.098 0.148 0.158 0.239zM36.172 182.547v0l-1.295 0.452c-0.205 0.135-0.64 0.206-1.307 0.213-0.657 0.009-1.039-0.07-1.148-0.234v0c-0.658-0.996-0.745-1.654-0.262-1.974v0c0.097-0.064 0.856 0.15 2.276 0.642v0l0.842 0.29c0.569 0.156 0.885 0.282 0.949 0.379 0.06 0.091 0.042 0.169-0.055 0.232z" fill="#755bb4" data-fill-palette-color="accent"></path><path d="M40.965 200.625v0c-0.903-1.855-1.701-3.153-2.395-3.896-0.689-0.738-1.655-1.151-2.898-1.242-1.247-0.095-2.51-0.053-3.79 0.126v0c-0.691 0.03-1.043-0.062-1.055-0.275-0.007-0.217 0.164-0.359 0.514-0.424v0l4.711-0.579c0.907-0.129 1.778-0.051 2.612 0.233v0c0.272 0.091 0.483 0.217 0.632 0.376 0.154 0.164 0.309 0.341 0.467 0.529 0.162 0.194 0.299 0.36 0.41 0.499 0.116 0.144 0.317 0.479 0.604 1.005 0.286 0.536 0.456 0.853 0.51 0.951v0l1.642 2.85c0.607 0.04 1.157 0.184 1.65 0.432 0.494 0.239 0.836 0.46 1.028 0.665 0.186 0.199 0.216 0.456 0.089 0.77v0c-0.47 0.476-1.147 0.586-2.03 0.33-0.884-0.257-1.445-0.512-1.683-0.767-0.238-0.254-0.393-0.44-0.466-0.558v0c-3.089-0.418-5.613-0.72-7.571-0.907-1.958-0.187-3.045-0.291-3.262-0.313v0l0.397 1.338c0.502 2.155 1.083 3.586 1.744 4.294v0c0.438 0.468 1.084 0.835 1.94 1.101 0.855 0.265 2.265 0.465 4.229 0.599 1.974 0.134 3.621 0.117 4.939-0.051v0c0.238-0.035 0.394 0.037 0.47 0.219 0.066 0.181 0.08 0.29 0.04 0.327v0c-0.284 0.266-1.646 0.372-4.087 0.318-2.44-0.053-4.169-0.174-5.185-0.363v0c-1.703-0.313-2.999-0.946-3.889-1.898-0.89-0.952-1.528-2.428-1.914-4.43v0c-0.149-0.729-0.325-1.302-0.528-1.719v0c-1.545-0.274-2.534-0.643-2.967-1.106v0c-0.116-0.125-0.201-0.255-0.255-0.392v0c0.014-0.275 0.143-0.526 0.388-0.755 0.239-0.224 0.623-0.358 1.15-0.402v0c0.892-0.105 1.687 0.216 2.385 0.963v0c0.345 0.369 0.645 0.83 0.902 1.384v0c0.994 0.135 1.562 0.193 1.703 0.174v0c1.822 0.201 4.762 0.4 8.819 0.594z" fill="#755bb4" data-fill-palette-color="accent"></path><path d="M81.856 236.668v0c-0.789-0.341-1.21-0.94-1.263-1.795-0.054-0.856 0.154-1.825 0.622-2.908 0.469-1.083 1.339-2.468 2.612-4.155v0c-0.857-0.46-2.294-1.294-4.314-2.502v0c-5.433 2.852-9.692 4.622-12.777 5.31v0c-2.662 0.639-5.077 0.491-7.243-0.447v0c-1.377-0.596-2.409-1.451-3.093-2.565-0.679-1.111-0.726-2.343-0.141-3.695v0c0.111-0.257 0.275-0.464 0.493-0.623 0.22-0.165 0.373-0.166 0.458-0.002 0.082 0.154 0.019 0.473-0.19 0.954v0c-0.376 0.87-0.32 1.668 0.169 2.392 0.489 0.725 1.216 1.295 2.18 1.713v0c2.091 0.905 4.446 1.113 7.065 0.626 2.613-0.49 6.524-1.964 11.735-4.422v0c-3.55-2.086-5.923-3.387-7.118-3.905v0c-3.237-1.4-5.695-1.208-7.374 0.578v0c-0.222 0.238-0.386 0.48-0.492 0.724-0.103 0.238-0.146 0.476-0.13 0.713 0.025 0.234-0.022 0.395-0.143 0.485-0.111 0.086-0.239 0.09-0.384 0.012-0.151-0.08-0.243-0.22-0.275-0.42v0c-0.073-0.604-0.011-1.134 0.187-1.592v0c0.683-1.578 1.474-2.618 2.375-3.119 0.897-0.511 1.775-0.7 2.631-0.568v0c1.025 0.139 2.148 0.472 3.369 1 1.227 0.531 4.101 2.35 8.621 5.458v0c2.06-0.982 5.247-2.62 9.562-4.916 4.319-2.286 6.49-3.458 6.515-3.514v0l0.038 0.016c0.036-0.014 0.118-0.023 0.246-0.027v0c0.762-0.094 1.499 0.013 2.213 0.322v0c0.257 0.111 0.33 0.295 0.218 0.551v0c-0.011 0.025-0.037 0.051-0.078 0.078-0.041 0.027-0.088 0.066-0.14 0.118-0.055 0.058-0.109 0.105-0.162 0.141v0c-4.194 2.994-8.063 6.732-11.606 11.212v0l-0.23 0.224 0.941 0.452c0.19 0.112 0.547 0.281 1.073 0.508 0.52 0.225 1.127 0.342 1.821 0.353 0.685 0.014 1.173-0.083 1.464-0.292 0.285-0.211 0.459-0.21 0.523 0.003 0.06 0.204 0.001 0.376-0.178 0.514v0c-0.501 0.385-1.159 0.539-1.973 0.463v0c-0.722-0.015-1.38-0.151-1.975-0.409-0.601-0.26-0.992-0.429-1.174-0.508v0l-1.007-0.48c-1.447 2.005-2.455 3.665-3.024 4.98-0.566 1.308-0.492 2.117 0.222 2.426v0c0.689 0.298 1.996 0.213 3.923-0.255 1.926-0.467 3.899-1.29 5.917-2.468v0c0.127-0.071 0.242-0.052 0.342 0.059 0.104 0.104 0.139 0.194 0.107 0.269-0.033 0.075-0.092 0.161-0.178 0.258-0.089 0.103-0.411 0.305-0.966 0.608v0c-1.688 0.964-3.583 1.746-5.686 2.345v0c-1.508 0.41-2.951 0.318-4.328-0.278zM92.276 218.354v0c0.047-0.039 0.108-0.095 0.183-0.166 0.078-0.078 0.141-0.136 0.188-0.175v0c-5.066 2.982-9.081 5.236-12.045 6.763v0l3.735 2.396c1.916-2.471 4.563-5.41 7.939-8.818z" fill="#755bb4" data-fill-palette-color="accent"></path><path d="M108.21 232.992v0l0.323-0.801c0.079-0.547-0.087-0.85-0.499-0.91v0c-1.121-0.163-2.784 0.492-4.989 1.964-2.207 1.479-3.703 3.071-4.488 4.776v0c-0.204 0.453-0.332 0.862-0.385 1.227-0.054 0.371-0.015 0.694 0.118 0.968v0c0.252 0.54 0.723 0.86 1.411 0.96 0.689 0.1 1.445 0.113 2.269 0.04v0c1.827-0.238 3.391-0.735 4.693-1.49 1.301-0.749 2.716-1.853 4.245-3.313v0c0.135-0.125 0.273-0.146 0.413-0.064 0.141 0.076 0.204 0.161 0.19 0.255-0.014 0.095-0.075 0.234-0.185 0.418v0c-1.575 1.591-3.166 2.839-4.772 3.743-1.6 0.905-3.372 1.385-5.317 1.44v0c-0.565 0.001-1.081-0.033-1.547-0.1v0c-1.343-0.195-2.318-0.674-2.924-1.438-0.606-0.764-0.851-1.544-0.735-2.34 0.116-0.797 0.434-1.633 0.953-2.509v0c0.916-1.466 2.621-2.859 5.115-4.179 2.487-1.321 4.392-1.885 5.716-1.693v0c0.331 0.048 0.639 0.134 0.924 0.259v0c0.729 0.389 1.05 0.883 0.963 1.484v0c-0.06 0.412-0.276 0.859-0.65 1.342-0.379 0.476-0.636 0.628-0.769 0.457-0.126-0.177-0.15-0.342-0.073-0.496z" fill="#755bb4" data-fill-palette-color="accent"></path><path d="M126.095 233.366v0l0.189-0.843c-0.01-0.552-0.224-0.825-0.64-0.816v0c-1.132 0.021-2.667 0.937-4.605 2.747-1.938 1.817-3.155 3.631-3.653 5.442v0c-0.127 0.48-0.188 0.904-0.181 1.272 0.007 0.375 0.098 0.687 0.274 0.937v0c0.337 0.492 0.853 0.731 1.548 0.718 0.696-0.013 1.444-0.123 2.246-0.329v0c1.764-0.531 3.227-1.275 4.389-2.232 1.162-0.95 2.379-2.269 3.651-3.958v0c0.113-0.145 0.245-0.189 0.396-0.13 0.151 0.052 0.228 0.125 0.23 0.221 0.002 0.095-0.036 0.243-0.115 0.442v0c-1.296 1.826-2.663 3.315-4.101 4.468-1.432 1.153-3.102 1.914-5.013 2.284v0c-0.558 0.092-1.072 0.143-1.543 0.152v0c-1.357 0.026-2.397-0.289-3.118-0.944-0.722-0.655-1.09-1.385-1.106-2.19-0.015-0.805 0.163-1.681 0.534-2.63v0c0.666-1.595 2.122-3.247 4.369-4.954 2.24-1.707 4.028-2.573 5.365-2.598v0c0.334-0.006 0.652 0.029 0.953 0.105v0c0.783 0.265 1.18 0.701 1.192 1.308v0c0.008 0.416-0.133 0.893-0.424 1.431-0.297 0.531-0.525 0.723-0.685 0.575-0.153-0.154-0.204-0.313-0.152-0.478z" fill="#755bb4" data-fill-palette-color="accent"></path><path d="M142.845 235.615v0c0.3-1.098 0.398-1.921 0.295-2.471-0.102-0.543-0.243-0.961-0.423-1.253-0.18-0.292-0.176-0.567 0.011-0.825 0.193-0.265 0.472-0.405 0.838-0.418v0c0.57 0.039 0.957 0.604 1.162 1.697 0.204 1.086-0.166 2.638-1.112 4.655v0c0.166 0.732 0.617 1.029 1.355 0.89 0.737-0.139 1.708-1.141 2.912-3.005v0c0.55-0.95 0.892-1.567 1.026-1.849 0.128-0.281 0.269-0.398 0.423-0.35 0.147 0.042 0.225 0.089 0.236 0.143v0c0.052 0.275-0.308 1.075-1.079 2.4v0c-1.189 2.202-2.386 3.417-3.593 3.644v0c-0.791 0.149-1.411-0.085-1.861-0.701v0c-0.442 0.673-0.876 1.303-1.299 1.89v0c-0.895 1.106-1.997 1.782-3.304 2.027v0c-0.737 0.139-1.384 0.077-1.941-0.186v0c-1.067-0.396-1.74-1.331-2.017-2.806v0c-0.303-1.609-0.065-3.347 0.715-5.216v0c0.446-1.097 1.022-2.094 1.727-2.991v0c1.113-1.424 2.27-2.25 3.47-2.475v0c0.302-0.057 0.598-0.071 0.887-0.042v0c0.87 0.121 1.376 0.563 1.521 1.327v0c0.117 0.623 0.012 0.966-0.317 1.028v0c-0.144-0.028-0.25-0.22-0.317-0.575v0c-0.092-0.489-0.413-0.682-0.962-0.579v0c-0.952 0.179-2.015 1.282-3.188 3.307-1.172 2.032-1.742 3.962-1.711 5.789v0c0.003 0.312 0.039 0.652 0.109 1.02 0.069 0.369 0.273 0.768 0.61 1.197 0.338 0.429 0.838 0.581 1.502 0.457 0.67-0.126 1.345-0.562 2.024-1.308 0.677-0.752 1.244-1.65 1.7-2.694v0l-0.176-0.217c-0.191-0.422-0.201-0.788-0.03-1.098 0.163-0.315 0.432-0.453 0.807-0.412z" fill="#755bb4" data-fill-palette-color="accent"></path><path d="M171.886 224.303c-0.107 0.851-0.443 2.019-1.01 3.503-0.572 1.486-1.138 2.687-1.697 3.602v0c-0.732 1.161-1.703 1.984-2.912 2.469v0c-0.234 0.094-0.583 0.105-1.045 0.034-0.462-0.072-0.839-0.288-1.132-0.649-0.298-0.358-0.524-0.73-0.679-1.117v0c-0.536-1.336-0.808-2.766-0.817-4.291v0c-0.056 0.081-0.191 0.771-0.405 2.069-0.214 1.299-0.592 2.593-1.132 3.883-0.545 1.299-1.279 2.134-2.204 2.505v0c-0.437 0.175-0.987 0.26-1.651 0.254v0c-1.217-0.048-2.074-0.69-2.569-1.924v0c-0.612-1.526-0.718-3.302-0.318-5.329 0.4-2.027 0.722-3.148 0.965-3.365v0c0.343-0.263 0.689-0.464 1.037-0.603 0.348-0.14 0.732-0.209 1.152-0.208 0.417-0.005 0.458 0.254 0.124 0.777v0c-1.129 2.334-1.668 4.645-1.618 6.933v0c0.031 0.884 0.152 1.589 0.363 2.114 0.213 0.532 0.483 0.82 0.81 0.866 0.333 0.043 0.63 0.012 0.889-0.092v0c0.62-0.249 1.29-1.017 2.008-2.305 0.725-1.29 1.479-3.68 2.262-7.169v0c0.105-0.49 0.255-1.425 0.452-2.805 0.19-1.377 0.311-2.194 0.362-2.45v0c0.412-0.165 0.931-0.263 1.558-0.294 0.636-0.027 0.924 0.151 0.865 0.535v0c-0.409 2.553-0.667 4.42-0.774 5.602-0.115 1.178 0.002 2.461 0.354 3.85v0c0.069 0.244 0.175 0.547 0.32 0.908 0.145 0.361 0.364 0.615 0.658 0.761v0c0.551 0.257 1.094 0.061 1.628-0.587 0.534-0.648 1.178-1.744 1.933-3.289 0.757-1.539 1.29-2.969 1.597-4.29v0c0.054-0.176 0.165-0.257 0.333-0.243 0.165 0.007 0.26 0.043 0.285 0.106 0.025 0.063 0.028 0.143 0.008 0.239z" fill="#755bb4" data-fill-palette-color="accent"></path><path d="M181.952 210.453v0c0.531-0.359 0.988-0.256 1.37 0.309 0.382 0.565 0.642 1.521 0.78 2.869 0.138 1.348 0.293 2.417 0.465 3.207v0c0.274 1.355 0.625 2.348 1.053 2.981 0.428 0.633 0.804 0.988 1.129 1.065v0c0.593 0.134 1.076-0.168 1.449-0.907 0.373-0.739 0.771-1.946 1.193-3.623 0.426-1.672 0.649-3.186 0.67-4.543v0c0.01-0.18 0.101-0.283 0.273-0.308 0.163-0.028 0.263-0.013 0.301 0.043 0.038 0.057 0.058 0.134 0.059 0.232v0c0.076 0.855-0.009 2.069-0.254 3.643-0.245 1.574-0.581 2.934-1.008 4.08-0.433 1.149-1.051 1.996-1.853 2.538v0c-0.799 0.499-1.472 0.691-2.019 0.576-0.548-0.115-0.991-0.425-1.332-0.928-0.344-0.508-0.629-1.028-0.856-1.557-0.227-0.53-0.423-1.192-0.59-1.986v0c-0.257-1.268-0.417-2.284-0.48-3.047-0.064-0.764-0.153-1.231-0.268-1.4-0.118-0.175-0.268-0.202-0.449-0.08v0c-0.373 0.252-0.772 1.177-1.199 2.776v0c-0.261 1.148-0.459 3.119-0.595 5.912-0.14 2.788-0.263 4.304-0.369 4.549v0c-0.546 0.971-0.923 1.527-1.132 1.668-0.203 0.138-0.328 0.173-0.374 0.105-0.05-0.073-0.094-0.188-0.133-0.343-0.039-0.155-0.24-0.933-0.604-2.334-0.36-1.396-0.757-2.926-1.192-4.592-0.441-1.662-0.704-2.666-0.789-3.012-0.08-0.349-0.17-0.635-0.27-0.855-0.096-0.215-0.169-0.408-0.22-0.58-0.047-0.166-0.062-0.378-0.047-0.635 0.006-0.259 0.109-0.465 0.311-0.618 0.196-0.149 0.474-0.304 0.834-0.466 0.36-0.161 0.619-0.126 0.776 0.106v0c0.107 0.158 0.217 0.594 0.329 1.308 0.118 0.711 0.651 3.056 1.598 7.036v0c0.141-1.569 0.397-3.443 0.767-5.621 0.371-2.178 0.761-3.908 1.171-5.191v0c0.45-1.21 0.951-2.003 1.505-2.377z" fill="#755bb4" data-fill-palette-color="accent"></path><path d="M194.413 200.579l0.365-0.403c1.413-1.613 2.285-2.576 2.617-2.891 0.332-0.315 0.544-0.422 0.639-0.323v0c0.117 0.124 0.002 0.473-0.347 1.047-0.348 0.584-1.344 1.844-2.987 3.779v0c0.075 0.277 0.155 0.605 0.241 0.983v0c0.158 0.771 0.274 1.216 0.349 1.334v0c1.03 3.386 1.811 5.418 2.342 6.098v0c0.154 0.202 0.365 0.444 0.633 0.726 0.268 0.282 0.565 0.437 0.892 0.466v0c0.587 0.054 1.009-0.309 1.266-1.089 0.257-0.78 0.452-2.036 0.585-3.77 0.137-1.729 0.116-3.273-0.065-4.634v0c-0.014-0.184 0.068-0.3 0.248-0.348v0c0.433-0.148 0.662 1.144 0.686 3.876v0c0.032 2.611-0.232 4.489-0.793 5.632v0c-0.331 0.662-0.667 1.155-1.009 1.479v0c-0.807 0.765-1.705 0.889-2.695 0.37v0c-0.176-0.106-0.357-0.258-0.545-0.456v0c-0.671-0.708-1.361-2.084-2.07-4.13v0c0.107 0.321 0.193 1.199 0.256 2.634v0c0.009 0.377-0.132 0.51-0.423 0.402v0c-0.057-0.021-0.119-0.066-0.185-0.135-0.07-0.074-0.113-0.198-0.127-0.373v0c-0.179-2.162-0.388-3.933-0.627-5.315v0c-0.019-0.02-0.197-0.654-0.536-1.903v0c-0.165 0.232-0.354 0.449-0.567 0.651-0.208 0.197-0.425 0.281-0.651 0.251-0.226-0.04-0.383-0.186-0.473-0.44v0c-0.166-0.463 0.195-1.153 1.083-2.07v0c-0.018-0.058 0.003-0.116 0.062-0.172v0l-1.147-4.243c-0.076-0.238-0.144-0.489-0.204-0.751-0.06-0.272-0.108-0.476-0.144-0.612-0.04-0.141-0.077-0.289-0.111-0.444-0.034-0.155-0.048-0.274-0.041-0.356-0.003-0.082-0.003-0.162-0.001-0.239v0c-0.033-0.194 0.148-0.479 0.544-0.854 0.391-0.371 0.761-0.511 1.111-0.419v0c0.139 0.018 0.301 0.124 0.484 0.316 0.178 0.188 0.306 0.467 0.383 0.836 0.082 0.364 0.088 0.673 0.019 0.927-0.069 0.254-0.075 0.471-0.017 0.651v0z" fill="#755bb4" data-fill-palette-color="accent"></path><path d="M202.41 191.998v0c0.441-0.538 0.876-0.72 1.305-0.545v0c0.234 0.112 0.4 0.292 0.498 0.54 0.107 0.246 0.196 0.434 0.267 0.562 0.071 0.129 0.132 0.232 0.183 0.309v0c0.12 0.284 0.235 0.558 0.344 0.823v0c1.447 3.229 2.477 5.148 3.091 5.756v0c0.178 0.181 0.418 0.395 0.718 0.641 0.301 0.246 0.615 0.363 0.944 0.349v0c0.589-0.02 0.963-0.433 1.12-1.239 0.157-0.806 0.193-2.077 0.106-3.813-0.081-1.732-0.297-3.262-0.647-4.589v0c-0.037-0.18 0.016-0.3 0.16-0.358 0.139-0.062 0.235-0.072 0.288-0.029 0.053 0.043 0.094 0.112 0.123 0.206v0c0.317 0.797 0.584 1.985 0.799 3.563v0c0.36 2.587 0.334 4.482-0.079 5.687v0c-0.245 0.698-0.517 1.23-0.815 1.594v0c-0.704 0.86-1.58 1.096-2.628 0.706v0c-0.188-0.083-0.387-0.211-0.598-0.384v0c-0.755-0.618-1.612-1.897-2.572-3.837v0c0.147 0.305 0.342 1.166 0.585 2.581v0c0.057 0.372-0.067 0.523-0.369 0.452v0c-0.06-0.013-0.126-0.05-0.2-0.111-0.079-0.065-0.137-0.183-0.174-0.354v0c-0.449-2.122-0.879-3.853-1.289-5.194v0c-0.145-0.049-0.266-0.187-0.361-0.414v0c-0.854-1.413-1.18-2.306-0.98-2.68v0c0.052-0.063 0.112-0.137 0.181-0.222zM200.213 185.942v0l0.815 1.104c0.19 0.156 0.387 0.55 0.591 1.185 0.203 0.624 0.242 1.013 0.117 1.166v0c-0.756 0.924-1.358 1.202-1.807 0.835v0c-0.09-0.073-0.11-0.862-0.062-2.365v0l0.028-0.889c-0.02-0.589 0.007-0.929 0.08-1.019 0.069-0.084 0.149-0.09 0.238-0.017z" fill="#755bb4" data-fill-palette-color="accent"></path><path d="M213.786 173.945v0c0.318-0.557 0.773-0.666 1.365-0.328 0.593 0.338 1.248 1.081 1.968 2.23 0.719 1.149 1.33 2.039 1.833 2.671v0c0.844 1.094 1.598 1.831 2.262 2.209 0.664 0.379 1.158 0.531 1.482 0.457v0c0.591-0.142 0.891-0.626 0.901-1.453 0.009-0.827-0.168-2.087-0.531-3.778-0.357-1.688-0.825-3.145-1.406-4.371v0c-0.07-0.166-0.034-0.298 0.109-0.398 0.134-0.097 0.23-0.128 0.289-0.094 0.059 0.034 0.111 0.095 0.155 0.183v0c0.446 0.733 0.906 1.86 1.382 3.38 0.476 1.52 0.775 2.888 0.898 4.105 0.119 1.223-0.061 2.254-0.541 3.096v0c-0.496 0.801-1.015 1.27-1.557 1.408-0.542 0.138-1.077 0.057-1.605-0.243-0.533-0.304-1.019-0.644-1.456-1.02-0.438-0.375-0.906-0.882-1.406-1.521v0c-0.79-1.024-1.383-1.865-1.778-2.521-0.395-0.657-0.681-1.036-0.858-1.138-0.184-0.105-0.33-0.062-0.438 0.127v0c-0.223 0.391-0.173 1.397 0.151 3.019v0c0.273 1.145 0.966 3.001 2.077 5.568 1.106 2.563 1.665 3.978 1.679 4.244v0c-0.061 1.112-0.154 1.777-0.279 1.997-0.122 0.213-0.218 0.3-0.29 0.259-0.077-0.044-0.167-0.127-0.27-0.249-0.103-0.122-0.627-0.731-1.573-1.828-0.939-1.093-1.972-2.291-3.098-3.593-1.13-1.296-1.809-2.081-2.038-2.353-0.226-0.278-0.433-0.494-0.62-0.648-0.181-0.15-0.332-0.292-0.454-0.423-0.115-0.129-0.223-0.312-0.322-0.55-0.109-0.235-0.107-0.466 0.006-0.691 0.11-0.22 0.291-0.482 0.542-0.786 0.252-0.304 0.499-0.387 0.742-0.248v0c0.166 0.095 0.457 0.438 0.874 1.028 0.42 0.585 1.934 2.454 4.542 5.607v0c-0.567-1.47-1.165-3.264-1.795-5.383-0.629-2.118-1.043-3.843-1.242-5.173v0c-0.131-1.284-0.031-2.217 0.3-2.798z" fill="#755bb4" data-fill-palette-color="accent"></path><path d="M244.239 174.716v0c-0.068 0.215-0.19 0.466-0.367 0.753v0c-0.773 1.244-1.696 1.696-2.768 1.357-1.067-0.337-2.189-1.458-3.369-3.362-1.175-1.896-2.537-5.55-4.087-10.963v0c-3.286-3.136-5.951-5.435-7.993-6.896v0c1.332 2.053 2.243 3.507 2.731 4.362v0c1.894 3.218 2.611 5.555 2.149 7.012v0c-0.134 0.423-0.405 0.838-0.812 1.245-0.408 0.408-0.897 0.711-1.468 0.91-0.571 0.199-1.12 0.215-1.647 0.048v0c-1.405-0.444-2.672-1.922-3.802-4.434v0c-0.685-1.498-1.198-2.998-1.539-4.5-0.338-1.509-0.484-2.665-0.438-3.466 0.052-0.799 0.187-1.54 0.403-2.223 0.218-0.689 0.597-1.242 1.136-1.658 0.537-0.41 0.991-0.556 1.362-0.438v0c0.208 0.066 0.239 0.194 0.093 0.383v0c-0.591 0.128-1.044 0.689-1.359 1.685-0.315 0.995-0.349 2.222-0.102 3.681 0.253 1.461 0.663 2.835 1.229 4.123 0.574 1.283 1.313 2.454 2.215 3.513 0.903 1.058 1.618 1.671 2.145 1.837v0c0.924 0.292 1.469 0.175 1.635-0.352v0c0.235-0.741-0.013-2.072-0.744-3.991v0c-1.049-2.836-2.514-5.703-4.394-8.602v0c-0.392-0.503-0.153-1.211 0.715-2.124v0c0.348-0.355 0.588-0.469 0.719-0.342v0c0.658 0.587 1.79 1.636 3.395 3.146 1.605 1.509 2.81 2.642 3.615 3.397v0c-0.119-0.71-0.59-2.004-1.412-3.881-0.816-1.875-1.699-3.575-2.648-5.098v0c-0.5-0.795-0.512-1.117-0.038-0.967v0c0.663 0.21 1.908 2.349 3.733 6.418v0c1.061 2.346 1.681 3.97 1.861 4.871v0c3.925 3.717 6.362 6.148 7.309 7.292v0c2.306 2.912 3.153 5.333 2.542 7.264zM234.922 163.731v0c1.374 3.933 2.54 6.806 3.498 8.619 0.956 1.819 2.042 2.921 3.258 3.305v0c0.371 0.117 0.672 0.08 0.904-0.111 0.237-0.183 0.397-0.407 0.482-0.674 0.084-0.267 0.007-0.713-0.231-1.339-0.238-0.626-0.496-1.18-0.773-1.661-0.271-0.479-0.526-0.903-0.767-1.273-0.247-0.372-0.579-0.806-0.994-1.302-0.411-0.488-0.733-0.872-0.966-1.154-0.229-0.273-0.603-0.674-1.122-1.202-0.519-0.529-0.871-0.887-1.056-1.075-0.189-0.196-0.575-0.568-1.159-1.118-0.58-0.541-0.938-0.88-1.074-1.016z" fill="#755bb4" data-fill-palette-color="accent"></path><path d="M0 122.597c0-5.873 4.761-10.633 10.633-10.633 5.873 0 10.633 4.761 10.633 10.633 0 5.873-4.761 10.633-10.633 10.634-5.873 0-10.633-4.761-10.633-10.634z" fill="#755bb4" data-fill-palette-color="accent"></path><path d="M217.634 122.597c0-5.873 4.761-10.633 10.633-10.633 5.873 0 10.633 4.761 10.633 10.633 0 5.873-4.761 10.633-10.633 10.634-5.873 0-10.633-4.761-10.633-10.634z" fill="#755bb4" data-fill-palette-color="accent"></path></g></svg></g></svg></g></svg></g><defs></defs></svg><rect width="395.5199999999999" height="141.89316791052838" fill="none" stroke="none" visibility="hidden"></rect></g></svg></g></svg>