<svg xmlns="http://www.w3.org/2000/svg" version="1.1" xmlns:xlink="http://www.w3.org/1999/xlink" xmlns:svgjs="http://svgjs.dev/svgjs" width="1000" height="1000" viewBox="0 0 1000 1000"><rect width="1000" height="1000" fill="#8abcd7"></rect><g transform="matrix(0.7,0,0,0.7,149.57575760300801,418.1502436185246)"><svg viewBox="0 0 396 93" data-background-color="#8abcd7" preserveAspectRatio="xMidYMid meet" height="234" width="1000" xmlns="http://www.w3.org/2000/svg" xmlns:xlink="http://www.w3.org/1999/xlink"><g id="tight-bounds" transform="matrix(1,0,0,1,0.2400000154159443,-0.028526596598197784)"><svg viewBox="0 0 395.52 93.0570531931964" height="93.0570531931964" width="395.52"><g><svg viewBox="0 0 470.9929601570574 110.81416097025769" height="93.0570531931964" width="395.52"><g><svg viewBox="0 0 470.9929601570574 110.81416097025769" height="110.81416097025769" width="470.9929601570574"><g id="textblocktransform"><svg viewBox="0 0 470.9929601570574 110.81416097025769" height="110.81416097025769" width="470.9929601570574" id="textblock"><g><svg viewBox="0 0 470.9929601570574 78.411376953125" height="78.411376953125" width="470.9929601570574"><g><svg><g></g><g></g></svg></g><g><svg><g></g><g><svg></svg></g></svg></g><g id="text-0"><svg viewBox="0 0 470.9929601570574 78.411376953125" height="78.411376953125" width="470.9929601570574"><g transform="matrix(1,0,0,1,0,15.1578369140625)"><svg width="74.3408203125" viewBox="-1.7100000381469727 -37.5 74.33999633789062 38.47999954223633" height="38.4765625" data-palette-color="#ffffff"><path d="M-1.71-36.89L-1.71-36.89 12.4-36.89Q7.74-34.81 7.74-33.69L7.74-33.69Q7.74-33.59 7.79-33.5L7.79-33.5 7.86-33.28 17.29-9.03 26.37-33.28 26.44-33.52Q26.49-33.64 26.49-33.79L26.49-33.79Q26.37-35.25 21.83-36.89L21.83-36.89 33.94-36.89Q30.93-36.3 29.37-33.47L29.37-33.47 29.3-33.28 16.24 0.98 2.93-33.28 2.91-33.35 2.83-33.57Q1.27-36.3-1.71-36.89ZM33.2-23.49L33.2-23.49Q34.96-24.27 40.67-26.27L40.67-26.27Q41.57-26.59 42.67-26.9L42.67-26.9 42.67-3.61 42.72-3.39Q44.04-0.68 47.31 0L47.31 0 33.2 0Q36.23-0.59 37.79-3.42L37.79-3.42 37.84-3.61 37.84-21.48Q37.84-22.09 37.52-22.34L37.52-22.34Q37.01-22.75 35.89-22.97L35.89-22.97Q33.49-23.49 33.2-23.49ZM38.01-31.99Q37.08-32.93 37.08-34.28 37.08-35.62 38.01-36.56 38.94-37.5 40.26-37.5 41.57-37.5 42.5-36.56 43.43-35.62 43.43-34.28 43.43-32.93 42.5-31.99 41.57-31.05 40.26-31.05 38.94-31.05 38.01-31.99ZM68.09 0L48.29 0 64.16-23.8 56.39-23.8 56.05-23.78Q54.32-23.61 49.29-18.43L49.29-18.43 53.83-26.29 70.97-26.29 55.63-2.49 65.52-2.49 65.86-2.51Q67.6-2.69 72.63-7.86L72.63-7.86 68.09 0Z" opacity="1" transform="matrix(1,0,0,1,0,0)" fill="#ffffff" class="undefined-p-0"></path></svg></g><g><svg xmlns="http://www.w3.org/2000/svg" xmlns:xlink="http://www.w3.org/1999/xlink" version="1.1" x="92.853271484375" y="0" viewBox="0 2.299999713897705 65 60.40000534057617" enable-background="new 0 0 65 65" xml:space="preserve" height="78.411376953125" width="84.38309687580741" class="icon-s-0" data-fill-palette-color="accent" id="s-0"><g fill="#ffffff" data-fill-palette-color="accent"><path d="M60.2 12.5H43.4v6.8h16.7V12.5zM58.7 17.7H44.9V14h13.8V17.7z" fill="#ffffff" data-fill-palette-color="accent"></path><rect x="44.9" y="30.5" width="4.5" height="1.5" fill="#ffffff" data-fill-palette-color="accent"></rect><rect x="55.7" y="33" width="1.5" height="1.5" fill="#ffffff" data-fill-palette-color="accent"></rect><rect x="53.8" y="30.5" width="5.4" height="1.5" fill="#ffffff" data-fill-palette-color="accent"></rect><rect x="55.7" y="28.1" width="1.5" height="1.5" fill="#ffffff" data-fill-palette-color="accent"></rect><polygon points="47.9,21.4 46.4,21.4 46.4,22.9 44.9,22.9 44.9,24.4 46.4,24.4 46.4,25.9 47.9,25.9 47.9,24.4 49.4,24.4 49.4,22.9    47.9,22.9  " fill="#ffffff" data-fill-palette-color="accent"></polygon><polygon points="55.4,25.8 56.5,24.7 57.5,25.8 58.6,24.7 57.5,23.7 58.6,22.6 57.5,21.6 56.5,22.6 55.4,21.6 54.4,22.6 55.4,23.7    54.4,24.7  " fill="#ffffff" data-fill-palette-color="accent"></polygon><path d="M24.2 45.9c0-0.9-0.4-1.7-1.1-2.3-0.7-0.6-1.5-0.9-2.5-0.9-0.6 0-1.1-0.2-1.5-0.5-0.4-0.3-0.6-0.7-0.6-1.2 0-0.4 0.2-0.8 0.6-1.2 0.8-0.7 2.2-0.7 3 0 0.4 0.3 0.6 0.7 0.6 1.2h1.5c0-0.9-0.4-1.7-1.1-2.3-0.5-0.4-1.1-0.7-1.7-0.8v-1.9h-1.5V38c-0.6 0.1-1.2 0.4-1.7 0.8-0.7 0.6-1.1 1.4-1.1 2.3 0 0.9 0.4 1.7 1.1 2.3 0.7 0.6 1.5 0.9 2.5 0.9 0.6 0 1.1 0.2 1.5 0.5 0.4 0.3 0.6 0.7 0.6 1.2 0 0.4-0.2 0.8-0.6 1.2-0.8 0.7-2.2 0.7-3 0-0.4-0.3-0.6-0.7-0.6-1.2h-1.5c0 0.9 0.4 1.7 1.1 2.3 0.5 0.4 1.1 0.7 1.7 0.8v1.9h1.5V49c0.6-0.1 1.2-0.4 1.7-0.8C23.8 47.6 24.2 46.8 24.2 45.9z" fill="#ffffff" data-fill-palette-color="accent"></path><path d="M65 54.8l0-0.7h-9.8V37.3h8V9.1h-8V8.7c0-3.5-2.8-6.3-6.3-6.4L7 2.3v0c-0.2 0-0.4 0-0.6 0C2.9 2.3 0 5.2 0 8.7v2.2h11.3l0 45.4c0 3.5 2.9 6.4 6.4 6.4 0 0 0 0 0 0l41.7 0c3.2 0 5.6-2.5 5.6-5.9C65 56.3 65 54.8 65 54.8zM61.7 10.6v25.3H42V10.6H61.7zM11.3 9.4H1.5V8.7c0-2.7 2.2-4.9 4.9-4.9s4.9 2.2 4.9 4.9V9.4zM17.7 61.2c-2.7 0-4.9-2.2-4.9-4.9l0-3.5 0-44.2c0-2-0.9-3.8-2.3-4.9l38.2 0c2.7 0 4.9 2.2 4.9 4.9v0.4H40.5v28.2h13.2v16.8H23.4l-1.1 0.2 0.2 0.8c0.1 0.4 0.2 0.9 0.2 1.3C22.6 59 20.4 61.2 17.7 61.2zM59.4 61.2H21.8c1.4-1.2 2.3-2.9 2.3-4.9 0-0.2 0-0.5-0.1-0.7h39.4c0 0.4 0 1 0 1.2C63.5 59.4 61.8 61.2 59.4 61.2z" fill="#ffffff" data-fill-palette-color="accent"></path><rect x="20.1" y="16" transform="matrix(-0.7071 0.7071 -0.7071 -0.7071 55.7354 10.4708)" width="11.1" height="1.5" fill="#ffffff" data-fill-palette-color="accent"></rect><path d="M28.5 17.5c-1.2 0-2.2 1-2.2 2.2 0 1.2 1 2.2 2.2 2.2 1.2 0 2.2-1 2.2-2.2C30.8 18.5 29.8 17.5 28.5 17.5zM28.5 20.5c-0.4 0-0.8-0.3-0.8-0.8 0-0.4 0.3-0.8 0.8-0.8 0.4 0 0.8 0.3 0.8 0.8C29.3 20.2 28.9 20.5 28.5 20.5z" fill="#ffffff" data-fill-palette-color="accent"></path><path d="M22.7 16.2c1.2 0 2.2-1 2.2-2.2 0-1.2-1-2.2-2.2-2.2-1.2 0-2.2 1-2.2 2.2C20.5 15.2 21.5 16.2 22.7 16.2zM22.7 13.2c0.4 0 0.8 0.3 0.8 0.8 0 0.4-0.3 0.8-0.8 0.8-0.4 0-0.8-0.3-0.8-0.8C21.9 13.5 22.3 13.2 22.7 13.2z" fill="#ffffff" data-fill-palette-color="accent"></path><path d="M25.6 26.3L25.6 26.3c5.2 0 9.5-4.2 9.5-9.4 0-5.2-4.2-9.5-9.5-9.5-5.2 0-9.5 4.2-9.5 9.4C16.1 22 20.3 26.3 25.6 26.3zM25.6 8.9c4.4 0 8 3.6 8 8 0 4.4-3.6 8-8 8v0.7l0-0.7c-4.4 0-8-3.6-8-8C17.6 12.4 21.2 8.9 25.6 8.9z" fill="#ffffff" data-fill-palette-color="accent"></path><polygon points="34.8,37.1 31.7,42 28.6,37.1 27.3,37.8 30.4,42.7 27.9,42.7 27.9,44.2 31,44.2 31,45.7 27.9,45.7 27.9,47.2    31,47.2 31,49.5 32.4,49.5 32.4,47.2 35.5,47.2 35.5,45.7 32.4,45.7 32.4,44.2 35.5,44.2 35.5,42.7 33,42.7 36.1,37.8  " fill="#ffffff" data-fill-palette-color="accent"></polygon></g></svg></g><g transform="matrix(1,0,0,1,195.7488195320574,14.7916259765625)"><svg width="275.244140625" viewBox="-1.7100000381469727 -37.869998931884766 275.2200012207031 48.470001220703125" height="48.4619140625" data-palette-color="#ffffff"><path d="M10.33 0L-1.71 0Q1.29-0.59 2.86-3.42L2.86-3.42 2.93-3.61 15.99-37.87 29.3-3.61 29.32-3.54 29.39-3.32Q30.96-0.59 33.94 0L33.94 0 19.82 0Q24.49-1.37 24.49-3.03L24.49-3.03Q24.49-3.2 24.44-3.39L24.44-3.39 24.37-3.61 20.63-13.18 9.38-13.18 5.79-3.61 5.71-3.37Q5.66-3.22 5.66-3.05L5.66-3.05Q5.66-1.56 10.33 0L10.33 0ZM14.94-28.56L10.3-15.67 19.68-15.67 14.94-28.56ZM34.91-13.16L34.91-13.16Q34.91-16.87 36.37-20.07 37.84-23.27 40.31-25.1L40.31-25.1Q42.72-26.88 45.75-26.9L45.75-26.9 45.82-26.9Q48.68-26.9 51.19-25.1L51.19-25.1Q53.73-23.27 54.86-20.7L54.86-20.7 55.2-19.92 55.22-19.87Q55.66-18.68 55.66-17.63L55.66-17.63Q55.66-16.28 54.73-15.28L54.73-15.28Q53.83-14.31 52.49-14.31L52.49-14.31Q51.17-14.31 50.24-15.25 49.31-16.19 49.31-17.53 49.31-18.87 50.24-19.8L50.24-19.8Q50.8-20.36 51.49-20.61L51.49-20.61Q51.07-21.29 50.34-22.12L50.34-22.12Q48.85-23.8 46.48-24.02L46.48-24.02 46.43-24.02Q43.23-24.02 41.55-21.41L41.55-21.41Q39.84-18.75 39.84-13.23L39.84-13.23 39.84-13.13Q39.84-7.5 42.03-4.83 44.21-2.17 46.58-2.17L46.58-2.17 46.63-2.17Q49.61-2.17 51.73-4.79L51.73-4.79Q52.59-5.83 53.27-7.64L53.27-7.64 56.1-6.84Q56.03-6.52 55.93-6.27L55.93-6.27Q54.64-3.22 52-1.25L52-1.25Q49.53 0.61 46.19 0.61L46.19 0.61 46.12 0.61Q42.75 0.61 40.31-1.21 37.86-3.03 36.37-6.25L36.37-6.25Q34.91-9.42 34.91-13.16ZM61.47-13.16L61.47-13.16Q61.47-16.87 62.93-20.07 64.4-23.27 66.87-25.1L66.87-25.1Q69.28-26.88 72.31-26.9L72.31-26.9 72.38-26.9Q75.24-26.9 77.75-25.1L77.75-25.1Q80.29-23.27 81.42-20.7L81.42-20.7 81.76-19.92 81.78-19.87Q82.22-18.68 82.22-17.63L82.22-17.63Q82.22-16.28 81.29-15.28L81.29-15.28Q80.39-14.31 79.05-14.31L79.05-14.31Q77.73-14.31 76.8-15.25 75.87-16.19 75.87-17.53 75.87-18.87 76.8-19.8L76.8-19.8Q77.36-20.36 78.05-20.61L78.05-20.61Q77.63-21.29 76.9-22.12L76.9-22.12Q75.41-23.8 73.04-24.02L73.04-24.02 72.99-24.02Q69.79-24.02 68.11-21.41L68.11-21.41Q66.4-18.75 66.4-13.23L66.4-13.23 66.4-13.13Q66.4-7.5 68.59-4.83 70.77-2.17 73.14-2.17L73.14-2.17 73.19-2.17Q76.17-2.17 78.29-4.79L78.29-4.79Q79.15-5.83 79.83-7.64L79.83-7.64 82.66-6.84Q82.59-6.52 82.49-6.27L82.49-6.27Q81.2-3.22 78.56-1.25L78.56-1.25Q76.09 0.61 72.75 0.61L72.75 0.61 72.68 0.61Q69.31 0.61 66.87-1.21 64.42-3.03 62.93-6.25L62.93-6.25Q61.47-9.42 61.47-13.16ZM93.35-13.23L93.35-13.23Q93.35-7.79 94.57-5.13L94.57-5.13Q96.14-1.73 99.09-1.73L99.09-1.73Q101.73-1.73 103.26-5.57L103.26-5.57Q104.53-8.74 104.58-13.04L104.58-13.04 104.58-13.13Q104.58-18.21 102.63-21.34L102.63-21.34Q101.02-23.93 98.85-23.93L98.85-23.93Q98.82-23.93 98.77-23.93L98.77-23.93Q96.45-23.93 94.91-21.29L94.91-21.29Q93.35-18.63 93.35-13.23ZM88.03-12.84L88.03-12.84Q88.03-16.87 89.49-20.04L89.49-20.04Q90.98-23.27 93.43-25.07L93.43-25.07Q95.89-26.9 98.87-26.9L98.87-26.9Q101.82-26.9 104.31-25.07L104.31-25.07Q106.78-23.27 108.24-20.04 109.71-16.82 109.71-13.13L109.71-13.13Q109.71-9.42 108.24-6.25 106.78-3.08 104.31-1.22L104.31-1.22Q101.87 0.61 98.87 0.61L98.87 0.61Q96.01 0.61 93.43-1.22L93.43-1.22Q90.93-2.98 89.47-6.13L89.47-6.13Q88.03-9.23 88.03-12.84ZM128.75-26.29L142.86-26.29Q139.83-25.71 138.27-22.88L138.27-22.88 138.22-22.68 138.22-4.81Q138.22-4.2 138.54-3.96L138.54-3.96Q139.03-3.56 140.03-3.34L140.03-3.34Q142.25-2.86 142.86-2.81L142.86-2.81Q141.49-2.2 135.39-0.02L135.39-0.02Q134.37 0.34 133.39 0.61L133.39 0.61 133.39-1.27 133.32-1.22Q130.87 0.61 127.87 0.61L127.87 0.61Q124.92 0.61 122.43-1.22L122.43-1.22Q119.96-3.03 118.5-6.25 117.03-9.47 117.03-13.16L117.03-13.16 117.03-13.31 117.03-21.48Q117.03-22.09 116.71-22.34L116.71-22.34Q116.2-22.73 115.22-22.95L115.22-22.95Q113.08-23.44 112.39-23.49L112.39-23.49Q113.76-24.1 119.86-26.27L119.86-26.27Q120.89-26.64 121.87-26.9L121.87-26.9 121.87-13.26 121.87-13.16Q121.87-7.59 123.99-4.91L123.99-4.91Q125.99-2.37 128.8-2.37L128.8-2.37Q128.85-2.37 128.9-2.37L128.9-2.37Q132-2.37 133.39-4.61L133.39-4.61 133.39-22.68 133.34-22.9Q132.02-25.61 128.75-26.29L128.75-26.29ZM158.92 0L144.81 0Q147.84-0.59 149.4-3.42L149.4-3.42 149.45-3.61 149.45-21.48Q149.45-22.09 149.13-22.34L149.13-22.34Q148.64-22.73 147.64-22.95L147.64-22.95Q145.42-23.44 144.81-23.49L144.81-23.49Q145.64-23.85 152.28-26.27L152.28-26.27Q153.31-26.64 154.28-26.9L154.28-26.9 154.28-25.02 154.36-25.07Q156.8-26.9 159.8-26.9L159.8-26.9Q162.76-26.9 165.25-25.07L165.25-25.07Q167.71-23.27 169.18-20.04 170.64-16.82 170.64-13.13L170.64-13.13 170.64-12.99 170.64-4.81Q170.64-4.2 170.96-3.96L170.96-3.96Q171.45-3.56 172.45-3.34L172.45-3.34Q174.67-2.86 175.28-2.81L175.28-2.81Q173.91-2.2 167.81-0.02L167.81-0.02Q166.78 0.34 165.81 0.61L165.81 0.61 165.81-13.04 165.81-13.13Q165.81-18.7 163.68-21.39L163.68-21.39Q161.68-23.93 158.87-23.93L158.87-23.93Q158.83-23.93 158.78-23.93L158.78-23.93Q155.68-23.93 154.28-21.68L154.28-21.68 154.28-3.61 154.33-3.39Q155.65-0.68 158.92 0L158.92 0ZM174.06-20.7L174.06-20.7 178.43-27.88Q178.28-27.27 178.28-26.64L178.28-26.64Q178.28-25.05 180.01-25.05L180.01-25.05Q180.06-25.05 180.14-25.05L180.14-25.05 180.23-25.05 184.07-25.05 184.07-32.08Q184.07-32.64 183.75-32.93L183.75-32.93Q183.38-33.28 182.16-33.52L182.16-33.52Q180.8-33.79 179.43-34.08L179.43-34.08Q181.65-35.06 186.9-36.87L186.9-36.87Q187.83-37.18 188.9-37.5L188.9-37.5 188.9-25.05 194.15-25.05 194.35-25.05Q197.42-25.22 198.96-26.9L198.96-26.9 194.59-19.73Q194.74-20.34 194.74-20.97L194.74-20.97Q194.74-22.56 193-22.56L193-22.56Q192.95-22.56 192.88-22.56L192.88-22.56 192.78-22.56 188.9-22.56 188.9-3.61 188.95-3.39Q190.27-0.68 193.54 0L193.54 0 179.43 0Q182.46-0.59 184.02-3.42L184.02-3.42 184.07-3.61 184.07-22.56 178.87-22.56 178.67-22.56Q175.6-22.39 174.06-20.7ZM198.71-23.49L198.71-23.49Q200.47-24.27 206.18-26.27L206.18-26.27Q207.09-26.59 208.19-26.9L208.19-26.9 208.19-3.61 208.23-3.39Q209.55-0.68 212.82 0L212.82 0 198.71 0Q201.74-0.59 203.3-3.42L203.3-3.42 203.35-3.61 203.35-21.48Q203.35-22.09 203.03-22.34L203.03-22.34Q202.52-22.75 201.4-22.97L201.4-22.97Q199.01-23.49 198.71-23.49ZM203.52-31.99Q202.59-32.93 202.59-34.28 202.59-35.62 203.52-36.56 204.45-37.5 205.77-37.5 207.09-37.5 208.01-36.56 208.94-35.62 208.94-34.28 208.94-32.93 208.01-31.99 207.09-31.05 205.77-31.05 204.45-31.05 203.52-31.99ZM228.89 0L214.77 0Q217.8-0.59 219.36-3.42L219.36-3.42 219.41-3.61 219.41-21.48Q219.41-22.09 219.1-22.34L219.1-22.34Q218.61-22.73 217.61-22.95L217.61-22.95Q215.39-23.44 214.77-23.49L214.77-23.49Q215.61-23.85 222.25-26.27L222.25-26.27Q223.27-26.64 224.25-26.9L224.25-26.9 224.25-25.02 224.32-25.07Q226.76-26.9 229.77-26.9L229.77-26.9Q232.72-26.9 235.21-25.07L235.21-25.07Q237.68-23.27 239.14-20.04 240.61-16.82 240.61-13.13L240.61-13.13 240.61-12.99 240.61-4.81Q240.61-4.2 240.92-3.96L240.92-3.96Q241.41-3.56 242.41-3.34L242.41-3.34Q244.63-2.86 245.24-2.81L245.24-2.81Q243.88-2.2 237.77-0.02L237.77-0.02Q236.75 0.34 235.77 0.61L235.77 0.61 235.77-13.04 235.77-13.13Q235.77-18.7 233.65-21.39L233.65-21.39Q231.65-23.93 228.84-23.93L228.84-23.93Q228.79-23.93 228.74-23.93L228.74-23.93Q225.64-23.93 224.25-21.68L224.25-21.68 224.25-3.61 224.3-3.39Q225.61-0.68 228.89 0L228.89 0ZM247.93-13.45L247.93-13.45Q247.93-17.07 249.37-20.17L249.37-20.17Q250.83-23.32 253.32-25.07L253.32-25.07Q255.91-26.9 259.3-26.9L259.3-26.9Q261.94-26.9 266.04-25.46L266.04-25.46Q272.1-23.34 273.51-22.68L273.51-22.68Q272.95-22.63 270.68-22.14L270.68-22.14Q269.7-21.92 269.19-21.53L269.19-21.53Q268.87-21.29 268.87-20.68L268.87-20.68 268.87 0Q268.56 5.42 264.77 8.11L264.77 8.11Q261.26 10.6 257.64 10.6L257.64 10.6Q257.35 10.6 257.06 10.57L257.06 10.57Q253.2 10.28 251.22 8.2L251.22 8.2Q250.22 7.15 250.22 5.88L250.22 5.88Q250.22 4.49 251.1 3.61L251.1 3.61Q252.03 2.69 253.37 2.69L253.37 2.69Q254.69 2.69 255.64 3.74 256.59 4.79 256.59 6.1L256.59 6.1Q256.59 7.18 255.76 8.06L255.76 8.06Q256.28 8.35 257.16 8.35 258.03 8.35 259.25 8.06L259.25 8.06Q261.6 7.5 262.67 6.01L262.67 6.01Q264.04 4.03 264.04 0.49L264.04 0.49Q264.04 0.27 264.04 0L264.04 0 264.04-1.1Q261.62 0.61 258.77 0.61L258.77 0.61Q255.79 0.61 253.32-1.22L253.32-1.22Q250.88-3.03 249.39-6.25L249.39-6.25Q247.93-9.42 247.93-13.45ZM253.25-13.06L253.25-13.06Q253.25-7.67 254.81-5L254.81-5Q256.42-2.37 259.6-2.37L259.6-2.37Q262.04-2.37 263.33-4.3L263.33-4.3Q263.99-5.27 264.04-6.05L264.04-6.05 264.04-6.27 264.04-20.68Q264.04-21.92 263.7-22.31L263.7-22.31 263.45-22.68Q261.55-24.56 259.13-24.56L259.13-24.56Q258.96-24.56 258.82-24.56L258.82-24.56Q256.01-24.46 254.47-21.17L254.47-21.17Q253.25-18.55 253.25-13.06Z" opacity="1" transform="matrix(1,0,0,1,0,0)" fill="#ffffff" class="undefined-p-1"></path></svg></g></svg></g></svg></g><g transform="matrix(1,0,0,1,0,87.494769921875)"><svg viewBox="0 0 470.9929601570574 23.319391048382695" height="23.319391048382695" width="470.9929601570574"><g transform="matrix(1,0,0,1,0,0)"><svg width="470.9929601570574" viewBox="3.1700000762939453 -37.869998931884766 978.7200317382812 48.470001220703125" height="23.319391048382695" data-palette-color="#ffffff"><path d="M4.25-10.74Q3.17-14.16 3.17-18.16 3.17-22.17 4.25-25.88L4.25-25.88Q5.35-29.69 7.18-32.08L7.18-32.08Q9.08-34.59 11.57-36.04L11.57-36.04Q14.09-37.5 16.65-37.5L16.65-37.5Q16.77-37.5 16.89-37.5L16.89-37.5Q19.73-37.5 22.14-36.23L22.14-36.23Q23.8-35.35 24.78-34.45L24.78-34.45 24.98-34.42Q27.42-34.62 28.2-37.52L28.2-37.52 28.2-23.41Q26.93-28.39 25.22-31.23L25.22-31.23Q24.39-32.52 23.1-33.47L23.1-33.47Q21.09-34.94 18.36-34.94L18.36-34.94Q15.21-34.94 12.55-32.84L12.55-32.84Q10.62-30.62 9.47-26.46L9.47-26.46Q8.35-22.39 8.35-18.53L8.35-18.53Q8.35-18.38 8.35-18.21L8.35-18.21Q8.35-14.4 9.13-11.28L9.13-11.28Q10.94-5.91 13.48-3.81L13.48-3.81Q15.55-2.1 18.82-2.1L18.82-2.1Q19.38-2.1 19.97-2.15L19.97-2.15Q21.78-2.29 24.02-3.71L24.02-3.71Q25.27-4.47 26.81-6.4L26.81-6.4Q27.78-7.62 28.42-9.62L28.42-9.62 30.91-8.64Q29.98-6.52 28.76-4.88L28.76-4.88Q26.88-2.39 24.37-0.95L24.37-0.95Q21.61 0.61 18.04 0.61L18.04 0.61Q17.97 0.61 17.92 0.61L17.92 0.61Q14.18 0.61 11.62-0.85L11.62-0.85Q9.03-2.34 7.18-4.81L7.18-4.81Q5.35-7.25 4.25-10.74L4.25-10.74ZM48.44 0L34.32 0Q37.35-0.59 38.91-3.42L38.91-3.42 38.96-3.61 38.96-32.08Q38.96-32.69 38.64-32.93L38.64-32.93Q38.13-33.33 37.16-33.54L37.16-33.54Q35.01-34.03 34.32-34.08L34.32-34.08Q35.15-34.45 41.79-36.87L41.79-36.87Q42.82-37.23 43.8-37.5L43.8-37.5 43.8-25.02 43.87-25.07Q46.31-26.9 49.31-26.9L49.31-26.9Q52.27-26.9 54.76-25.07L54.76-25.07Q57.22-23.27 58.69-20.04 60.15-16.82 60.15-13.13L60.15-13.13 60.15-12.99 60.15-4.81Q60.15-4.2 60.47-3.96L60.47-3.96Q60.96-3.56 61.96-3.34L61.96-3.34Q64.18-2.86 64.79-2.81L64.79-2.81Q63.43-2.2 57.32-0.02L57.32-0.02Q56.3 0.34 55.32 0.61L55.32 0.61 55.32-13.04 55.32-13.13Q55.32-18.7 53.2-21.39L53.2-21.39Q51.19-23.93 48.39-23.93L48.39-23.93Q48.34-23.93 48.29-23.93L48.29-23.93Q45.19-23.93 43.8-21.68L43.8-21.68 43.8-3.61 43.85-3.39Q45.16-0.68 48.44 0L48.44 0ZM72.77-13.23L72.77-13.23Q72.77-7.74 73.99-5.13L73.99-5.13Q75.58-1.73 78.34-1.73L78.34-1.73Q78.71-1.73 79.07-1.73L79.07-1.73Q81.1-1.73 82.98-3.61L82.98-3.61 83.22-3.98Q83.59-4.37 83.59-5.62L83.59-5.62 83.59-20.68Q83.59-21.92 83.25-22.31L83.25-22.31 83-22.68Q81.12-24.56 79.1-24.56L79.1-24.56Q78.73-24.56 78.36-24.56L78.36-24.56Q75.61-24.56 74.02-21.17L74.02-21.17Q72.77-18.51 72.77-13.23ZM67.48-13.45L67.48-13.45Q67.48-17.07 68.92-20.17L68.92-20.17Q70.36-23.29 72.87-25.07L72.87-25.07Q75.46-26.9 78.68-26.9L78.68-26.9Q81.49-26.9 85.59-25.46L85.59-25.46Q91.47-23.39 93.06-22.68L93.06-22.68Q92.52-22.66 90.23-22.14L90.23-22.14Q89.25-21.92 88.74-21.53L88.74-21.53Q88.42-21.29 88.42-20.68L88.42-20.68 88.42-5.62Q88.42-4.98 88.72-4.76L88.72-4.76Q89.23-4.37 90.2-4.15L90.2-4.15Q92.5-3.64 93.04-3.61L93.04-3.61Q91.45-2.91 85.57-0.83L85.57-0.83Q81.46 0.61 78.66 0.61L78.66 0.61Q75.43 0.61 72.85-1.22L72.85-1.22Q70.33-3 68.89-6.13L68.89-6.13Q67.48-9.18 67.48-13.45ZM109.12 0L95.01 0Q98.04-0.59 99.6-3.42L99.6-3.42 99.65-3.61 99.65-20.68Q99.65-21.26 99.33-21.53L99.33-21.53Q98.89-21.92 97.84-22.14L97.84-22.14Q95.65-22.63 95.01-22.68L95.01-22.68Q96.7-23.44 102.48-25.46L102.48-25.46Q106.58-26.9 109.56-26.9L109.56-26.9Q109.66-26.9 109.76-26.9L109.76-26.9Q113.71-26.9 116.64-24.17L116.64-24.17Q119.08-21.34 119.08-18.48L119.08-18.48Q119.08-18.41 119.08-18.36L119.08-18.36Q119.08-17.02 118.16-16.02L118.16-16.02Q117.25-15.04 115.91-15.04 114.57-15.04 113.66-15.97L113.66-15.97Q112.74-16.92 112.74-18.19L112.74-18.19Q112.74-18.24 112.74-18.26L112.74-18.26Q112.74-19.65 113.66-20.56L113.66-20.56Q114.57-21.44 115.76-21.48L115.76-21.48Q115.59-22.49 113.37-23.78L113.37-23.78Q112.27-24.41 110.51-24.41L110.51-24.41Q110.22-24.41 109.93-24.39L109.93-24.39Q107.27-24.17 105.53-22.95L105.53-22.95Q105.41-22.88 104.83-22.31L104.83-22.31Q104.48-22 104.48-20.68L104.48-20.68 104.48-3.61 104.53-3.39Q105.85-0.68 109.12 0L109.12 0ZM117.86-20.7L117.86-20.7 122.23-27.88Q122.08-27.27 122.08-26.64L122.08-26.64Q122.08-25.05 123.82-25.05L123.82-25.05Q123.87-25.05 123.94-25.05L123.94-25.05 124.04-25.05 127.87-25.05 127.87-32.08Q127.87-32.64 127.55-32.93L127.55-32.93Q127.19-33.28 125.97-33.52L125.97-33.52Q124.6-33.79 123.23-34.08L123.23-34.08Q125.45-35.06 130.7-36.87L130.7-36.87Q131.63-37.18 132.7-37.5L132.7-37.5 132.7-25.05 137.95-25.05 138.15-25.05Q141.23-25.22 142.76-26.9L142.76-26.9 138.39-19.73Q138.54-20.34 138.54-20.97L138.54-20.97Q138.54-22.56 136.81-22.56L136.81-22.56Q136.76-22.56 136.68-22.56L136.68-22.56 136.59-22.56 132.7-22.56 132.7-3.61 132.75-3.39Q134.07-0.68 137.34 0L137.34 0 123.23 0Q126.26-0.59 127.82-3.42L127.82-3.42 127.87-3.61 127.87-22.56 122.67-22.56 122.48-22.56Q119.4-22.39 117.86-20.7ZM142.52-23.49L142.52-23.49Q144.27-24.27 149.99-26.27L149.99-26.27Q150.89-26.59 151.99-26.9L151.99-26.9 151.99-3.61 152.04-3.39Q153.36-0.68 156.63 0L156.63 0 142.52 0Q145.54-0.59 147.11-3.42L147.11-3.42 147.16-3.61 147.16-21.48Q147.16-22.09 146.84-22.34L146.84-22.34Q146.33-22.75 145.2-22.97L145.2-22.97Q142.81-23.49 142.52-23.49ZM147.33-31.99Q146.4-32.93 146.4-34.28 146.4-35.62 147.33-36.56 148.25-37.5 149.57-37.5 150.89-37.5 151.82-36.56 152.75-35.62 152.75-34.28 152.75-32.93 151.82-31.99 150.89-31.05 149.57-31.05 148.25-31.05 147.33-31.99ZM172.69 0L158.58 0Q161.61-0.59 163.17-3.42L163.17-3.42 163.22-3.61 163.22-21.48Q163.22-22.09 162.9-22.34L162.9-22.34Q162.41-22.73 161.41-22.95L161.41-22.95Q159.19-23.44 158.58-23.49L158.58-23.49Q159.41-23.85 166.05-26.27L166.05-26.27Q167.07-26.64 168.05-26.9L168.05-26.9 168.05-25.02 168.12-25.07Q170.57-26.9 173.57-26.9L173.57-26.9Q176.52-26.9 179.01-25.07L179.01-25.07Q181.48-23.27 182.94-20.04 184.41-16.82 184.41-13.13L184.41-13.13 184.41-12.99 184.41-4.81Q184.41-4.2 184.73-3.96L184.73-3.96Q185.21-3.56 186.22-3.34L186.22-3.34Q188.44-2.86 189.05-2.81L189.05-2.81Q187.68-2.2 181.58-0.02L181.58-0.02Q180.55 0.34 179.57 0.61L179.57 0.61 179.57-13.04 179.57-13.13Q179.57-18.7 177.45-21.39L177.45-21.39Q175.45-23.93 172.64-23.93L172.64-23.93Q172.59-23.93 172.54-23.93L172.54-23.93Q169.44-23.93 168.05-21.68L168.05-21.68 168.05-3.61 168.1-3.39Q169.42-0.68 172.69 0L172.69 0ZM191.73-13.45L191.73-13.45Q191.73-17.07 193.17-20.17L193.17-20.17Q194.64-23.32 197.13-25.07L197.13-25.07Q199.71-26.9 203.11-26.9L203.11-26.9Q205.74-26.9 209.85-25.46L209.85-25.46Q215.9-23.34 217.32-22.68L217.32-22.68Q216.75-22.63 214.48-22.14L214.48-22.14Q213.51-21.92 213-21.53L213-21.53Q212.68-21.29 212.68-20.68L212.68-20.68 212.68 0Q212.36 5.42 208.58 8.11L208.58 8.11Q205.06 10.6 201.45 10.6L201.45 10.6Q201.15 10.6 200.86 10.57L200.86 10.57Q197 10.28 195.03 8.2L195.03 8.2Q194.03 7.15 194.03 5.88L194.03 5.88Q194.03 4.49 194.9 3.61L194.9 3.61Q195.83 2.69 197.17 2.69L197.17 2.69Q198.49 2.69 199.45 3.74 200.4 4.79 200.4 6.1L200.4 6.1Q200.4 7.18 199.57 8.06L199.57 8.06Q200.08 8.35 200.96 8.35 201.84 8.35 203.06 8.06L203.06 8.06Q205.4 7.5 206.48 6.01L206.48 6.01Q207.84 4.03 207.84 0.49L207.84 0.49Q207.84 0.27 207.84 0L207.84 0 207.84-1.1Q205.43 0.61 202.57 0.61L202.57 0.61Q199.59 0.61 197.13-1.22L197.13-1.22Q194.68-3.03 193.2-6.25L193.2-6.25Q191.73-9.42 191.73-13.45ZM197.05-13.06L197.05-13.06Q197.05-7.67 198.62-5L198.62-5Q200.23-2.37 203.4-2.37L203.4-2.37Q205.84-2.37 207.14-4.3L207.14-4.3Q207.8-5.27 207.84-6.05L207.84-6.05 207.84-6.27 207.84-20.68Q207.84-21.92 207.5-22.31L207.5-22.31 207.26-22.68Q205.35-24.56 202.94-24.56L202.94-24.56Q202.77-24.56 202.62-24.56L202.62-24.56Q199.81-24.46 198.27-21.17L198.27-21.17Q197.05-18.55 197.05-13.06ZM243.26 0L231.23 0Q234.23-0.59 235.79-3.42L235.79-3.42 235.87-3.61 248.93-37.87 262.23-3.61 262.26-3.54 262.33-3.32Q263.89-0.59 266.87 0L266.87 0 252.76 0Q257.42-1.37 257.42-3.03L257.42-3.03Q257.42-3.2 257.37-3.39L257.37-3.39 257.3-3.61 253.57-13.18 242.31-13.18 238.72-3.61 238.65-3.37Q238.6-3.22 238.6-3.05L238.6-3.05Q238.6-1.56 243.26 0L243.26 0ZM247.88-28.56L243.24-15.67 252.61-15.67 247.88-28.56ZM295.14 0L281.03 0Q284.05-0.59 285.62-3.42L285.62-3.42 285.67-3.61 285.67-31.25Q285.67-31.84 285.35-32.1L285.35-32.1Q284.91-32.47 283.86-32.71L283.86-32.71Q281.71-33.2 281.03-33.25L281.03-33.25Q282.71-34.01 288.5-36.04L288.5-36.04Q292.6-37.48 295.58-37.48L295.58-37.48Q295.68-37.48 295.77-37.48L295.77-37.48Q299.41-37.48 301.88-36.47L301.88-36.47Q304.37-35.5 306.03-33.98L306.03-33.98Q308.3-31.91 309.25-29.59L309.25-29.59Q309.88-28.27 310.03-25.2L310.03-25.2Q309.91-20.39 307.25-17.58L307.25-17.58Q304.86-15.06 301.88-13.96L301.88-13.96Q299.83-13.21 297.26-13.21L297.26-13.21Q296.77-13.21 296.26-13.23L296.26-13.23Q292.72-13.4 290.5-15.28L290.5-15.28 290.5-3.61 290.55-3.39Q291.87-0.68 295.14 0L295.14 0ZM295.75-34.96L295.75-34.96Q293.84-34.96 292.01-34.06L292.01-34.06Q291.28-33.62 290.84-32.89L290.84-32.89Q290.5-32.3 290.5-31.25L290.5-31.25 290.5-19.09Q291.72-16.82 294.45-15.97L294.45-15.97Q295.63-15.63 296.73-15.63L296.73-15.63Q296.85-15.63 296.99-15.63L296.99-15.63Q297.09-15.63 297.97-15.67L297.97-15.67Q300.29-15.92 301.88-17.19L301.88-17.19Q304.76-19.51 304.76-25.2L304.76-25.2Q304.76-28.13 303.59-30.47L303.59-30.47Q302.56-32.52 300.46-33.84L300.46-33.84Q298.65-34.96 295.75-34.96ZM321.19-13.23L321.19-13.23Q321.19-7.74 322.41-5.13L322.41-5.13Q323.99-1.73 326.75-1.73L326.75-1.73Q327.12-1.73 327.48-1.73L327.48-1.73Q329.51-1.73 331.39-3.61L331.39-3.61 331.64-3.98Q332-4.37 332-5.62L332-5.62 332-20.68Q332-21.92 331.66-22.31L331.66-22.31 331.42-22.68Q329.54-24.56 327.51-24.56L327.51-24.56Q327.14-24.56 326.78-24.56L326.78-24.56Q324.02-24.56 322.43-21.17L322.43-21.17Q321.19-18.51 321.19-13.23ZM315.89-13.45L315.89-13.45Q315.89-17.07 317.33-20.17L317.33-20.17Q318.77-23.29 321.28-25.07L321.28-25.07Q323.87-26.9 327.09-26.9L327.09-26.9Q329.9-26.9 334-25.46L334-25.46Q339.89-23.39 341.47-22.68L341.47-22.68Q340.94-22.66 338.64-22.14L338.64-22.14Q337.67-21.92 337.15-21.53L337.15-21.53Q336.84-21.29 336.84-20.68L336.84-20.68 336.84-5.62Q336.84-4.98 337.13-4.76L337.13-4.76Q337.64-4.37 338.62-4.15L338.62-4.15Q340.91-3.64 341.45-3.61L341.45-3.61Q339.86-2.91 333.98-0.83L333.98-0.83Q329.88 0.61 327.07 0.61L327.07 0.61Q323.85 0.61 321.26-1.22L321.26-1.22Q318.74-3 317.3-6.13L317.3-6.13Q315.89-9.18 315.89-13.45ZM341.23-20.7L341.23-20.7 345.6-27.88Q345.45-27.27 345.45-26.64L345.45-26.64Q345.45-25.05 347.18-25.05L347.18-25.05Q347.23-25.05 347.31-25.05L347.31-25.05 347.4-25.05 351.24-25.05 351.24-32.08Q351.24-32.64 350.92-32.93L350.92-32.93Q350.55-33.28 349.33-33.52L349.33-33.52Q347.97-33.79 346.6-34.08L346.6-34.08Q348.82-35.06 354.07-36.87L354.07-36.87Q355-37.18 356.07-37.5L356.07-37.5 356.07-25.05 361.32-25.05 361.52-25.05Q364.59-25.22 366.13-26.9L366.13-26.9 361.76-19.73Q361.91-20.34 361.91-20.97L361.91-20.97Q361.91-22.56 360.17-22.56L360.17-22.56Q360.12-22.56 360.05-22.56L360.05-22.56 359.95-22.56 356.07-22.56 356.07-3.61 356.12-3.39Q357.44-0.68 360.71 0L360.71 0 346.6 0Q349.63-0.59 351.19-3.42L351.19-3.42 351.24-3.61 351.24-22.56 346.04-22.56 345.84-22.56Q342.77-22.39 341.23-20.7ZM379.99 0L365.88 0Q368.91-0.59 370.47-3.42L370.47-3.42 370.52-3.61 370.52-32.08Q370.52-32.69 370.2-32.93L370.2-32.93Q369.69-33.33 368.72-33.54L368.72-33.54Q366.57-34.03 365.88-34.08L365.88-34.08Q366.71-34.45 373.35-36.87L373.35-36.87Q374.38-37.23 375.36-37.5L375.36-37.5 375.36-25.02 375.43-25.07Q377.87-26.9 380.87-26.9L380.87-26.9Q383.83-26.9 386.32-25.07L386.32-25.07Q388.78-23.27 390.25-20.04 391.71-16.82 391.71-13.13L391.71-13.13 391.71-12.99 391.71-4.81Q391.71-4.2 392.03-3.96L392.03-3.96Q392.52-3.56 393.52-3.34L393.52-3.34Q395.74-2.86 396.35-2.81L396.35-2.81Q394.98-2.2 388.88-0.02L388.88-0.02Q387.86 0.34 386.88 0.61L386.88 0.61 386.88-13.04 386.88-13.13Q386.88-18.7 384.76-21.39L384.76-21.39Q382.75-23.93 379.95-23.93L379.95-23.93Q379.9-23.93 379.85-23.93L379.85-23.93Q376.75-23.93 375.36-21.68L375.36-21.68 375.36-3.61 375.4-3.39Q376.72-0.68 379.99 0L379.99 0ZM432.63 0L418.51 0Q421.54-0.59 423.1-3.42L423.1-3.42 423.15-3.61 423.15-34.4 416.15-34.4 415.8-34.38Q414.07-34.2 409.04-29.03L409.04-29.03 413.58-36.89 437.56-36.89 442.1-29.03Q437.07-34.2 435.34-34.38L435.34-34.38 434.99-34.4 427.99-34.4 427.99-3.61 428.04-3.39Q429.35-0.68 432.63 0L432.63 0ZM448.15-13.23L448.15-13.23Q448.15-7.79 449.37-5.13L449.37-5.13Q450.93-1.73 453.89-1.73L453.89-1.73Q456.52-1.73 458.06-5.57L458.06-5.57Q459.33-8.74 459.38-13.04L459.38-13.04 459.38-13.13Q459.38-18.21 457.43-21.34L457.43-21.34Q455.82-23.93 453.64-23.93L453.64-23.93Q453.62-23.93 453.57-23.93L453.57-23.93Q451.25-23.93 449.71-21.29L449.71-21.29Q448.15-18.63 448.15-13.23ZM442.83-12.84L442.83-12.84Q442.83-16.87 444.29-20.04L444.29-20.04Q445.78-23.27 448.22-25.07L448.22-25.07Q450.69-26.9 453.67-26.9L453.67-26.9Q456.62-26.9 459.11-25.07L459.11-25.07Q461.58-23.27 463.04-20.04 464.51-16.82 464.51-13.13L464.51-13.13Q464.51-9.42 463.04-6.25 461.58-3.08 459.11-1.22L459.11-1.22Q456.67 0.61 453.67 0.61L453.67 0.61Q450.81 0.61 448.22-1.22L448.22-1.22Q445.73-2.98 444.27-6.13L444.27-6.13Q442.83-9.23 442.83-12.84ZM497.41 0L483.3 0Q486.33-0.59 487.89-3.42L487.89-3.42 487.94-3.61 487.94-33.28 487.89-33.47Q486.33-36.3 483.3-36.89L483.3-36.89 506.4-36.89 510.94-29.03Q505.91-34.2 504.18-34.38L504.18-34.38 503.83-34.4 492.77-34.4 492.77-15.67 500.42-15.67 500.76-15.7Q502.49-15.87 507.52-21.04L507.52-21.04 500.47-8.81Q500.68-9.62 500.68-10.3L500.68-10.3Q500.68-12.11 499.22-13.11L499.22-13.11 499.05-13.18 492.77-13.18 492.77-3.61 492.82-3.39Q494.14-0.68 497.41 0L497.41 0ZM513.87-23.49L513.87-23.49Q515.62-24.27 521.34-26.27L521.34-26.27Q522.24-26.59 523.34-26.9L523.34-26.9 523.34-3.61 523.39-3.39Q524.71-0.68 527.98 0L527.98 0 513.87 0Q516.89-0.59 518.46-3.42L518.46-3.42 518.5-3.61 518.5-21.48Q518.5-22.09 518.19-22.34L518.19-22.34Q517.67-22.75 516.55-22.97L516.55-22.97Q514.16-23.49 513.87-23.49ZM518.68-31.99Q517.75-32.93 517.75-34.28 517.75-35.62 518.68-36.56 519.6-37.5 520.92-37.5 522.24-37.5 523.17-36.56 524.1-35.62 524.1-34.28 524.1-32.93 523.17-31.99 522.24-31.05 520.92-31.05 519.6-31.05 518.68-31.99ZM544.04 0L529.93 0Q532.96-0.59 534.52-3.42L534.52-3.42 534.57-3.61 534.57-21.48Q534.57-22.09 534.25-22.34L534.25-22.34Q533.76-22.73 532.76-22.95L532.76-22.95Q530.54-23.44 529.93-23.49L529.93-23.49Q530.76-23.85 537.4-26.27L537.4-26.27Q538.42-26.64 539.4-26.9L539.4-26.9 539.4-25.02 539.47-25.07Q541.92-26.9 544.92-26.9L544.92-26.9Q547.87-26.9 550.36-25.07L550.36-25.07Q552.83-23.27 554.29-20.04 555.76-16.82 555.76-13.13L555.76-13.13 555.76-12.99 555.76-4.81Q555.76-4.2 556.08-3.96L556.08-3.96Q556.56-3.56 557.56-3.34L557.56-3.34Q559.79-2.86 560.4-2.81L560.4-2.81Q559.03-2.2 552.93-0.02L552.93-0.02Q551.9 0.34 550.92 0.61L550.92 0.61 550.92-13.04 550.92-13.13Q550.92-18.7 548.8-21.39L548.8-21.39Q546.8-23.93 543.99-23.93L543.99-23.93Q543.94-23.93 543.89-23.93L543.89-23.93Q540.79-23.93 539.4-21.68L539.4-21.68 539.4-3.61 539.45-3.39Q540.77-0.68 544.04 0L544.04 0ZM568.38-13.23L568.38-13.23Q568.38-7.74 569.6-5.13L569.6-5.13Q571.19-1.73 573.94-1.73L573.94-1.73Q574.31-1.73 574.68-1.73L574.68-1.73Q576.7-1.73 578.58-3.61L578.58-3.61 578.83-3.98Q579.19-4.37 579.19-5.62L579.19-5.62 579.19-20.68Q579.19-21.92 578.85-22.31L578.85-22.31 578.61-22.68Q576.73-24.56 574.7-24.56L574.7-24.56Q574.33-24.56 573.97-24.56L573.97-24.56Q571.21-24.56 569.62-21.17L569.62-21.17Q568.38-18.51 568.38-13.23ZM563.08-13.45L563.08-13.45Q563.08-17.07 564.52-20.17L564.52-20.17Q565.96-23.29 568.48-25.07L568.48-25.07Q571.06-26.9 574.29-26.9L574.29-26.9Q577.09-26.9 581.19-25.46L581.19-25.46Q587.08-23.39 588.67-22.68L588.67-22.68Q588.13-22.66 585.83-22.14L585.83-22.14Q584.86-21.92 584.34-21.53L584.34-21.53Q584.03-21.29 584.03-20.68L584.03-20.68 584.03-5.62Q584.03-4.98 584.32-4.76L584.32-4.76Q584.83-4.37 585.81-4.15L585.81-4.15Q588.1-3.64 588.64-3.61L588.64-3.61Q587.05-2.91 581.17-0.83L581.17-0.83Q577.07 0.61 574.26 0.61L574.26 0.61Q571.04 0.61 568.45-1.22L568.45-1.22Q565.94-3 564.5-6.13L564.5-6.13Q563.08-9.18 563.08-13.45ZM604.73 0L590.62 0Q593.64-0.59 595.21-3.42L595.21-3.42 595.25-3.61 595.25-21.48Q595.25-22.09 594.94-22.34L594.94-22.34Q594.45-22.73 593.45-22.95L593.45-22.95Q591.23-23.44 590.62-23.49L590.62-23.49Q591.45-23.85 598.09-26.27L598.09-26.27Q599.11-26.64 600.09-26.9L600.09-26.9 600.09-25.02 600.16-25.07Q602.6-26.9 605.61-26.9L605.61-26.9Q608.56-26.9 611.05-25.07L611.05-25.07Q613.52-23.27 614.98-20.04 616.45-16.82 616.45-13.13L616.45-13.13 616.45-12.99 616.45-4.81Q616.45-4.2 616.76-3.96L616.76-3.96Q617.25-3.56 618.25-3.34L618.25-3.34Q620.47-2.86 621.09-2.81L621.09-2.81Q619.72-2.2 613.61-0.02L613.61-0.02Q612.59 0.34 611.61 0.61L611.61 0.61 611.61-13.04 611.61-13.13Q611.61-18.7 609.49-21.39L609.49-21.39Q607.49-23.93 604.68-23.93L604.68-23.93Q604.63-23.93 604.58-23.93L604.58-23.93Q601.48-23.93 600.09-21.68L600.09-21.68 600.09-3.61 600.14-3.39Q601.46-0.68 604.73 0L604.73 0ZM623.77-13.16L623.77-13.16Q623.77-16.87 625.23-20.07 626.7-23.27 629.16-25.1L629.16-25.1Q631.58-26.88 634.61-26.9L634.61-26.9 634.68-26.9Q637.54-26.9 640.05-25.1L640.05-25.1Q642.59-23.27 643.71-20.7L643.71-20.7 644.06-19.92 644.08-19.87Q644.52-18.68 644.52-17.63L644.52-17.63Q644.52-16.28 643.59-15.28L643.59-15.28Q642.69-14.31 641.35-14.31L641.35-14.31Q640.03-14.31 639.1-15.25 638.17-16.19 638.17-17.53 638.17-18.87 639.1-19.8L639.1-19.8Q639.66-20.36 640.35-20.61L640.35-20.61Q639.93-21.29 639.2-22.12L639.2-22.12Q637.71-23.8 635.34-24.02L635.34-24.02 635.29-24.02Q632.09-24.02 630.41-21.41L630.41-21.41Q628.7-18.75 628.7-13.23L628.7-13.23 628.7-13.13Q628.7-7.5 630.88-4.83 633.07-2.17 635.44-2.17L635.44-2.17 635.49-2.17Q638.47-2.17 640.59-4.79L640.59-4.79Q641.44-5.83 642.13-7.64L642.13-7.64 644.96-6.84Q644.89-6.52 644.79-6.27L644.79-6.27Q643.49-3.22 640.86-1.25L640.86-1.25Q638.39 0.61 635.05 0.61L635.05 0.61 634.97 0.61Q631.61 0.61 629.16-1.21 626.72-3.03 625.23-6.25L625.23-6.25Q623.77-9.42 623.77-13.16ZM648.62-23.49L648.62-23.49Q650.38-24.27 656.09-26.27L656.09-26.27Q656.99-26.59 658.09-26.9L658.09-26.9 658.09-3.61 658.14-3.39Q659.46-0.68 662.73 0L662.73 0 648.62 0Q651.65-0.59 653.21-3.42L653.21-3.42 653.26-3.61 653.26-21.48Q653.26-22.09 652.94-22.34L652.94-22.34Q652.43-22.75 651.3-22.97L651.3-22.97Q648.91-23.49 648.62-23.49ZM653.43-31.99Q652.5-32.93 652.5-34.28 652.5-35.62 653.43-36.56 654.36-37.5 655.67-37.5 656.99-37.5 657.92-36.56 658.85-35.62 658.85-34.28 658.85-32.93 657.92-31.99 656.99-31.05 655.67-31.05 654.36-31.05 653.43-31.99ZM671.69-13.23L671.69-13.23Q671.69-7.74 672.91-5.13L672.91-5.13Q674.5-1.73 677.25-1.73L677.25-1.73Q677.62-1.73 677.99-1.73L677.99-1.73Q680.01-1.73 681.89-3.61L681.89-3.61 682.14-3.98Q682.5-4.37 682.5-5.62L682.5-5.62 682.5-20.68Q682.5-21.92 682.16-22.31L682.16-22.31 681.92-22.68Q680.04-24.56 678.01-24.56L678.01-24.56Q677.64-24.56 677.28-24.56L677.28-24.56Q674.52-24.56 672.93-21.17L672.93-21.17Q671.69-18.51 671.69-13.23ZM666.39-13.45L666.39-13.45Q666.39-17.07 667.83-20.17L667.83-20.17Q669.27-23.29 671.79-25.07L671.79-25.07Q674.37-26.9 677.6-26.9L677.6-26.9Q680.4-26.9 684.51-25.46L684.51-25.46Q690.39-23.39 691.98-22.68L691.98-22.68Q691.44-22.66 689.14-22.14L689.14-22.14Q688.17-21.92 687.65-21.53L687.65-21.53Q687.34-21.29 687.34-20.68L687.34-20.68 687.34-5.62Q687.34-4.98 687.63-4.76L687.63-4.76Q688.14-4.37 689.12-4.15L689.12-4.15Q691.41-3.64 691.95-3.61L691.95-3.61Q690.36-2.91 684.48-0.83L684.48-0.83Q680.38 0.61 677.57 0.61L677.57 0.61Q674.35 0.61 671.76-1.22L671.76-1.22Q669.25-3 667.81-6.13L667.81-6.13Q666.39-9.18 666.39-13.45ZM693.93-34.08L693.93-34.08Q695.17-34.62 701.4-36.87L701.4-36.87Q702.33-37.21 703.4-37.5L703.4-37.5 703.4-3.61 703.45-3.39Q704.77-0.68 708.04 0L708.04 0 693.93 0Q696.95-0.59 698.52-3.42L698.52-3.42 698.57-3.61 698.57-32.08Q698.57-32.69 698.25-32.93L698.25-32.93Q697.78-33.33 696.71-33.54L696.71-33.54Q694.15-34.06 693.93-34.08ZM738.99 0L724.88 0Q727.91-0.59 729.47-3.42L729.47-3.42 729.52-3.61 729.52-31.25Q729.52-31.84 729.2-32.1L729.2-32.1Q728.76-32.47 727.71-32.71L727.71-32.71Q725.56-33.2 724.88-33.25L724.88-33.25Q726.56-34.01 732.35-36.04L732.35-36.04Q736.45-37.48 739.43-37.48L739.43-37.48Q739.53-37.48 739.62-37.48L739.62-37.48Q743.26-37.48 745.73-36.47L745.73-36.47Q748.22-35.5 749.88-33.98L749.88-33.98Q752.15-31.91 753.1-29.59L753.1-29.59Q753.74-28.27 753.88-25.2L753.88-25.2Q753.76-20.39 751.1-17.58L751.1-17.58Q748.71-15.06 745.73-13.96L745.73-13.96Q743.68-13.21 741.11-13.21L741.11-13.21Q740.63-13.21 740.11-13.23L740.11-13.23Q736.57-13.4 734.35-15.28L734.35-15.28 734.35-3.61 734.4-3.39Q735.72-0.68 738.99 0L738.99 0ZM739.6-34.96L739.6-34.96Q737.7-34.96 735.86-34.06L735.86-34.06Q735.13-33.62 734.69-32.89L734.69-32.89Q734.35-32.3 734.35-31.25L734.35-31.25 734.35-19.09Q735.57-16.82 738.31-15.97L738.31-15.97Q739.48-15.63 740.58-15.63L740.58-15.63Q740.7-15.63 740.85-15.63L740.85-15.63Q740.94-15.63 741.82-15.67L741.82-15.67Q744.14-15.92 745.73-17.19L745.73-17.19Q748.61-19.51 748.61-25.2L748.61-25.2Q748.61-28.13 747.44-30.47L747.44-30.47Q746.41-32.52 744.31-33.84L744.31-33.84Q742.51-34.96 739.6-34.96ZM772.14 0L758.03 0Q761.06-0.59 762.62-3.42L762.62-3.42 762.67-3.61 762.67-20.68Q762.67-21.26 762.35-21.53L762.35-21.53Q761.91-21.92 760.86-22.14L760.86-22.14Q758.67-22.63 758.03-22.68L758.03-22.68Q759.72-23.44 765.5-25.46L765.5-25.46Q769.6-26.9 772.58-26.9L772.58-26.9Q772.68-26.9 772.78-26.9L772.78-26.9Q776.73-26.9 779.66-24.17L779.66-24.17Q782.1-21.34 782.1-18.48L782.1-18.48Q782.1-18.41 782.1-18.36L782.1-18.36Q782.1-17.02 781.17-16.02L781.17-16.02Q780.27-15.04 778.93-15.04 777.59-15.04 776.68-15.97L776.68-15.97Q775.76-16.92 775.76-18.19L775.76-18.19Q775.76-18.24 775.76-18.26L775.76-18.26Q775.76-19.65 776.68-20.56L776.68-20.56Q777.59-21.44 778.78-21.48L778.78-21.48Q778.61-22.49 776.39-23.78L776.39-23.78Q775.29-24.41 773.53-24.41L773.53-24.41Q773.24-24.41 772.95-24.39L772.95-24.39Q770.29-24.17 768.55-22.95L768.55-22.95Q768.43-22.88 767.84-22.31L767.84-22.31Q767.5-22 767.5-20.68L767.5-20.68 767.5-3.61 767.55-3.39Q768.87-0.68 772.14 0L772.14 0ZM790.11-13.23L790.11-13.23Q790.11-7.79 791.33-5.13L791.33-5.13Q792.89-1.73 795.85-1.73L795.85-1.73Q798.48-1.73 800.02-5.57L800.02-5.57Q801.29-8.74 801.34-13.04L801.34-13.04 801.34-13.13Q801.34-18.21 799.39-21.34L799.39-21.34Q797.77-23.93 795.6-23.93L795.6-23.93Q795.58-23.93 795.53-23.93L795.53-23.93Q793.21-23.93 791.67-21.29L791.67-21.29Q790.11-18.63 790.11-13.23ZM784.79-12.84L784.79-12.84Q784.79-16.87 786.25-20.04L786.25-20.04Q787.74-23.27 790.18-25.07L790.18-25.07Q792.65-26.9 795.63-26.9L795.63-26.9Q798.58-26.9 801.07-25.07L801.07-25.07Q803.54-23.27 805-20.04 806.47-16.82 806.47-13.13L806.47-13.13Q806.47-9.42 805-6.25 803.54-3.08 801.07-1.22L801.07-1.22Q798.63 0.61 795.63 0.61L795.63 0.61Q792.77 0.61 790.18-1.22L790.18-1.22Q787.69-2.98 786.23-6.13L786.23-6.13Q784.79-9.23 784.79-12.84ZM811.35-6.4L811.35-6.4Q811.35-7.74 812.27-8.68 813.2-9.62 814.52-9.62 815.84-9.62 816.77-8.68 817.69-7.74 817.69-6.4L817.69-6.4Q817.69-5.15 816.77-4.1L816.77-4.1Q816.57-3.88 816.33-3.69L816.33-3.69 816.62-3.44Q818.82-1.78 821.72-1.78L821.72-1.78Q821.75-1.78 821.79-1.78L821.79-1.78Q824.11-1.78 825.63-3L825.63-3Q826.95-4.08 827.04-6.74L827.04-6.74 827.04-7.2Q826.92-9.81 824.58-10.6L824.58-10.6 817.94-12.55Q814.2-13.65 813.25-17.85L813.25-17.85Q813.15-18.58 813.15-19.29L813.15-19.29Q813.15-21.7 815.08-24.07L815.08-24.07Q817.4-26.9 821.55-26.9L821.55-26.9Q825.43-26.9 828.17-24.32L828.17-24.32Q829.07-23.46 829.56-22.56L829.56-22.56Q829.92-21.88 829.92-21L829.92-21Q829.92-19.68 829-18.73 828.07-17.77 826.75-17.77 825.43-17.77 824.5-18.73 823.58-19.68 823.58-21.02 823.58-22.36 824.5-23.29L824.5-23.29 824.97-23.61Q823.48-24.44 821.58-24.44L821.58-24.44 821.5-24.44Q819.87-24.32 818.55-23.22L818.55-23.22Q817.47-22.09 817.47-20.02L817.47-20.02Q817.47-19.85 817.47-19.68L817.47-19.68Q817.47-17.63 819.55-16.75L819.55-16.75 825.34-15.23Q827.87-14.31 829.12-13.23L829.12-13.23Q831.46-11.21 831.51-7.15L831.51-7.15Q831.27-4.15 828.83-1.61L828.83-1.61Q826.65 0.61 821.67 0.61L821.67 0.61Q817.3 0.61 814.01-2.22L814.01-2.22Q812.3-3.71 811.76-4.76L811.76-4.76Q811.61-5.05 811.54-5.25L811.54-5.25Q811.35-5.76 811.35-6.4ZM854.95-13.06L854.95-13.06Q854.95-18.55 853.73-21.17L853.73-21.17Q852.14-24.56 849.01-24.56L849.01-24.56Q846.65-24.56 844.74-22.68L844.74-22.68 844.5-22.31Q844.16-21.92 844.16-20.68L844.16-20.68 844.16-6.27 844.16-6.05Q844.2-5.27 844.86-4.3L844.86-4.3Q846.16-2.37 848.72-2.37L848.72-2.37Q848.77-2.37 848.79-2.37L848.79-2.37Q851.77-2.37 853.38-5L853.38-5Q854.95-7.67 854.95-13.06ZM848.79 10.57L834.68 10.57Q837.71 9.99 839.27 7.15L839.27 7.15 839.32 6.96 839.32-20.68Q839.32-21.26 839-21.53L839-21.53Q838.56-21.92 837.52-22.14L837.52-22.14Q835.32-22.63 834.68-22.68L834.68-22.68Q836.27-23.39 842.15-25.46L842.15-25.46Q846.26-26.9 849.23-26.9L849.23-26.9Q849.33-26.9 849.43-26.9L849.43-26.9Q852.29-26.9 854.87-25.07L854.87-25.07Q857.36-23.32 858.83-20.17L858.83-20.17Q860.27-17.07 860.27-13.45L860.27-13.45Q860.27-9.42 858.8-6.25L858.8-6.25Q857.31-3.03 854.87-1.22L854.87-1.22Q852.41 0.61 849.43 0.61L849.43 0.61Q846.57 0.61 844.16-1.1L844.16-1.1 844.16 6.96 844.2 7.18Q845.52 9.89 848.79 10.57L848.79 10.57ZM865.64-13.16L865.64-13.16Q865.64-16.82 867.1-20.04L867.1-20.04Q868.54-23.22 871.03-25.07L871.03-25.07Q873.5-26.9 876.48-26.9L876.48-26.9Q879.31-26.9 881.82-25.24L881.82-25.24Q883.66-24.24 885.1-21.85L885.1-21.85Q886.12-20.14 886.24-18.14L886.24-18.14Q886.22-13.82 882.36-11.06L882.36-11.06Q879.09-8.72 874.62-8.72L874.62-8.72Q874.57-8.72 871.13-8.91L871.13-8.91Q871.74-6.4 872.77-4.83L872.77-4.83Q874.5-2.2 877.31-2.2L877.31-2.2 877.36-2.2Q880.36-2.2 882.46-4.79L882.46-4.79Q883.31-5.83 884-7.67L884-7.67 886.83-6.84Q886.73-6.45 886.66-6.3L886.66-6.3Q884.61-2.54 882.73-1.27L882.73-1.27Q879.68 0.59 876.92 0.59L876.92 0.59 876.84 0.59Q873.5 0.59 871.03-1.22 868.57-3.03 867.1-6.25 865.64-9.47 865.64-13.16ZM881.65-18.16L881.65-18.16Q881.65-20.92 880.19-22.51L880.19-22.51Q878.92-23.9 876.67-24.1L876.67-24.1 876.62-24.1Q873.94-24.1 872.33-21.48L872.33-21.48Q871.11-19.48 870.81-16.5L870.81-16.5Q870.64-14.77 870.64-12.74L870.64-12.74Q870.64-12.06 870.74-11.16L870.74-11.16Q872.96-11.11 875.18-11.11L875.18-11.11Q876.33-11.11 876.82-11.23L876.82-11.23Q879.29-11.84 880.24-13.28L880.24-13.28Q881.65-15.65 881.65-18.16ZM904.6 0L890.49 0Q893.52-0.59 895.08-3.42L895.08-3.42 895.13-3.61 895.13-20.68Q895.13-21.26 894.81-21.53L894.81-21.53Q894.37-21.92 893.32-22.14L893.32-22.14Q891.12-22.63 890.49-22.68L890.49-22.68Q892.17-23.44 897.96-25.46L897.96-25.46Q902.06-26.9 905.04-26.9L905.04-26.9Q905.14-26.9 905.23-26.9L905.23-26.9Q909.19-26.9 912.12-24.17L912.12-24.17Q914.56-21.34 914.56-18.48L914.56-18.48Q914.56-18.41 914.56-18.36L914.56-18.36Q914.56-17.02 913.63-16.02L913.63-16.02Q912.73-15.04 911.39-15.04 910.04-15.04 909.14-15.97L909.14-15.97Q908.21-16.92 908.21-18.19L908.21-18.19Q908.21-18.24 908.21-18.26L908.21-18.26Q908.21-19.65 909.14-20.56L909.14-20.56Q910.04-21.44 911.24-21.48L911.24-21.48Q911.07-22.49 908.85-23.78L908.85-23.78Q907.75-24.41 905.99-24.41L905.99-24.41Q905.7-24.41 905.41-24.39L905.41-24.39Q902.74-24.17 901.01-22.95L901.01-22.95Q900.89-22.88 900.3-22.31L900.3-22.31Q899.96-22 899.96-20.68L899.96-20.68 899.96-3.61 900.01-3.39Q901.33-0.68 904.6 0L904.6 0ZM915.53-23.49L915.53-23.49Q917.29-24.27 923.01-26.27L923.01-26.27Q923.91-26.59 925.01-26.9L925.01-26.9 925.01-3.61 925.06-3.39Q926.37-0.68 929.65 0L929.65 0 915.53 0Q918.56-0.59 920.12-3.42L920.12-3.42 920.17-3.61 920.17-21.48Q920.17-22.09 919.86-22.34L919.86-22.34Q919.34-22.75 918.22-22.97L918.22-22.97Q915.83-23.49 915.53-23.49ZM920.34-31.99Q919.42-32.93 919.42-34.28 919.42-35.62 920.34-36.56 921.27-37.5 922.59-37.5 923.91-37.5 924.84-36.56 925.76-35.62 925.76-34.28 925.76-32.93 924.84-31.99 923.91-31.05 922.59-31.05 921.27-31.05 920.34-31.99ZM929.4-20.7L929.4-20.7 933.77-27.88Q933.62-27.27 933.62-26.64L933.62-26.64Q933.62-25.05 935.36-25.05L935.36-25.05Q935.41-25.05 935.48-25.05L935.48-25.05 935.58-25.05 939.41-25.05 939.41-32.08Q939.41-32.64 939.09-32.93L939.09-32.93Q938.73-33.28 937.51-33.52L937.51-33.52Q936.14-33.79 934.77-34.08L934.77-34.08Q936.99-35.06 942.24-36.87L942.24-36.87Q943.17-37.18 944.24-37.5L944.24-37.5 944.24-25.05 949.49-25.05 949.69-25.05Q952.76-25.22 954.3-26.9L954.3-26.9 949.93-19.73Q950.08-20.34 950.08-20.97L950.08-20.97Q950.08-22.56 948.34-22.56L948.34-22.56Q948.3-22.56 948.22-22.56L948.22-22.56 948.13-22.56 944.24-22.56 944.24-3.61 944.29-3.39Q945.61-0.68 948.88 0L948.88 0 934.77 0Q937.8-0.59 939.36-3.42L939.36-3.42 939.41-3.61 939.41-22.56 934.21-22.56 934.01-22.56Q930.94-22.39 929.4-20.7ZM952.1-26.29L952.1-26.29 966.21-26.29Q961.55-24.22 961.55-23.1L961.55-23.1Q961.55-23 961.6-22.9L961.6-22.9 961.67-22.68 967.78-6.2 974.34-22.68 974.42-22.92Q974.47-23.1 974.47-23.19L974.47-23.19Q974.34-24.66 969.8-26.29L969.8-26.29 981.89-26.29Q978.88-25.71 977.32-22.88L977.32-22.88 977.25-22.68 965.82 5.86 965.53 6.59Q963.87 10.3 960.4 10.57L960.4 10.57Q960.26 10.57 960.09 10.57L960.09 10.57Q959.94 10.57 959.79 10.57L959.79 10.57Q956.91 10.57 954.57 8.2L954.57 8.2Q953.57 7.03 953.57 5.88L953.57 5.88Q953.57 4.49 954.45 3.61L954.45 3.61Q955.37 2.69 956.72 2.69L956.72 2.69Q958.03 2.69 958.99 3.71 959.94 4.74 959.94 6.05L959.94 6.05Q959.94 7.18 959.11 8.06L959.11 8.06Q959.79 8.35 960.38 8.35L960.38 8.35Q961.33 8.33 962.01 7.62L962.01 7.62 962.6 6.84Q964.14 3.08 965.09 0.44L965.09 0.44 956.74-22.68 956.72-22.75 956.64-22.97Q955.08-25.71 952.1-26.29Z" opacity="1" transform="matrix(1,0,0,1,0,0)" fill="#ffffff" class="slogan-text-1" data-fill-palette-color="secondary" id="text-1"></path></svg></g></svg></g></svg></g></svg></g></svg></g><defs></defs></svg><rect width="395.52" height="93.0570531931964" fill="none" stroke="none" visibility="hidden"></rect></g></svg></g></svg>